%TF.GenerationSoftware,KiCad,Pcbnew,7.0.7*%
%TF.CreationDate,2023-10-30T22:44:53-05:00*%
%TF.ProjectId,Half AA Lithium Battery Board,48616c66-2041-4412-904c-69746869756d,rev?*%
%TF.SameCoordinates,Original*%
%TF.FileFunction,Legend,Top*%
%TF.FilePolarity,Positive*%
%FSLAX46Y46*%
G04 Gerber Fmt 4.6, Leading zero omitted, Abs format (unit mm)*
G04 Created by KiCad (PCBNEW 7.0.7) date 2023-10-30 22:44:53*
%MOMM*%
%LPD*%
G01*
G04 APERTURE LIST*
%ADD10C,0.200000*%
%ADD11C,0.150000*%
%ADD12C,0.120000*%
%ADD13C,0.152400*%
%ADD14C,0.127000*%
G04 APERTURE END LIST*
D10*
X190710863Y-96269600D02*
X192996578Y-96269600D01*
X191853720Y-97412457D02*
X191853720Y-95126742D01*
D11*
X178978112Y-94932009D02*
X178644779Y-94932009D01*
X178644779Y-95455819D02*
X178644779Y-94455819D01*
X178644779Y-94455819D02*
X179120969Y-94455819D01*
X179930493Y-94789152D02*
X179930493Y-95455819D01*
X179501922Y-94789152D02*
X179501922Y-95312961D01*
X179501922Y-95312961D02*
X179549541Y-95408200D01*
X179549541Y-95408200D02*
X179644779Y-95455819D01*
X179644779Y-95455819D02*
X179787636Y-95455819D01*
X179787636Y-95455819D02*
X179882874Y-95408200D01*
X179882874Y-95408200D02*
X179930493Y-95360580D01*
X180359065Y-95408200D02*
X180454303Y-95455819D01*
X180454303Y-95455819D02*
X180644779Y-95455819D01*
X180644779Y-95455819D02*
X180740017Y-95408200D01*
X180740017Y-95408200D02*
X180787636Y-95312961D01*
X180787636Y-95312961D02*
X180787636Y-95265342D01*
X180787636Y-95265342D02*
X180740017Y-95170104D01*
X180740017Y-95170104D02*
X180644779Y-95122485D01*
X180644779Y-95122485D02*
X180501922Y-95122485D01*
X180501922Y-95122485D02*
X180406684Y-95074866D01*
X180406684Y-95074866D02*
X180359065Y-94979628D01*
X180359065Y-94979628D02*
X180359065Y-94932009D01*
X180359065Y-94932009D02*
X180406684Y-94836771D01*
X180406684Y-94836771D02*
X180501922Y-94789152D01*
X180501922Y-94789152D02*
X180644779Y-94789152D01*
X180644779Y-94789152D02*
X180740017Y-94836771D01*
X181597160Y-95408200D02*
X181501922Y-95455819D01*
X181501922Y-95455819D02*
X181311446Y-95455819D01*
X181311446Y-95455819D02*
X181216208Y-95408200D01*
X181216208Y-95408200D02*
X181168589Y-95312961D01*
X181168589Y-95312961D02*
X181168589Y-94932009D01*
X181168589Y-94932009D02*
X181216208Y-94836771D01*
X181216208Y-94836771D02*
X181311446Y-94789152D01*
X181311446Y-94789152D02*
X181501922Y-94789152D01*
X181501922Y-94789152D02*
X181597160Y-94836771D01*
X181597160Y-94836771D02*
X181644779Y-94932009D01*
X181644779Y-94932009D02*
X181644779Y-95027247D01*
X181644779Y-95027247D02*
X181168589Y-95122485D01*
X182073351Y-95360580D02*
X182120970Y-95408200D01*
X182120970Y-95408200D02*
X182073351Y-95455819D01*
X182073351Y-95455819D02*
X182025732Y-95408200D01*
X182025732Y-95408200D02*
X182073351Y-95360580D01*
X182073351Y-95360580D02*
X182073351Y-95455819D01*
X182073351Y-94836771D02*
X182120970Y-94884390D01*
X182120970Y-94884390D02*
X182073351Y-94932009D01*
X182073351Y-94932009D02*
X182025732Y-94884390D01*
X182025732Y-94884390D02*
X182073351Y-94836771D01*
X182073351Y-94836771D02*
X182073351Y-94932009D01*
X179120969Y-96065819D02*
X178644779Y-96065819D01*
X178644779Y-96065819D02*
X178597160Y-96542009D01*
X178597160Y-96542009D02*
X178644779Y-96494390D01*
X178644779Y-96494390D02*
X178740017Y-96446771D01*
X178740017Y-96446771D02*
X178978112Y-96446771D01*
X178978112Y-96446771D02*
X179073350Y-96494390D01*
X179073350Y-96494390D02*
X179120969Y-96542009D01*
X179120969Y-96542009D02*
X179168588Y-96637247D01*
X179168588Y-96637247D02*
X179168588Y-96875342D01*
X179168588Y-96875342D02*
X179120969Y-96970580D01*
X179120969Y-96970580D02*
X179073350Y-97018200D01*
X179073350Y-97018200D02*
X178978112Y-97065819D01*
X178978112Y-97065819D02*
X178740017Y-97065819D01*
X178740017Y-97065819D02*
X178644779Y-97018200D01*
X178644779Y-97018200D02*
X178597160Y-96970580D01*
X179597160Y-97065819D02*
X179597160Y-96399152D01*
X179597160Y-96494390D02*
X179644779Y-96446771D01*
X179644779Y-96446771D02*
X179740017Y-96399152D01*
X179740017Y-96399152D02*
X179882874Y-96399152D01*
X179882874Y-96399152D02*
X179978112Y-96446771D01*
X179978112Y-96446771D02*
X180025731Y-96542009D01*
X180025731Y-96542009D02*
X180025731Y-97065819D01*
X180025731Y-96542009D02*
X180073350Y-96446771D01*
X180073350Y-96446771D02*
X180168588Y-96399152D01*
X180168588Y-96399152D02*
X180311445Y-96399152D01*
X180311445Y-96399152D02*
X180406684Y-96446771D01*
X180406684Y-96446771D02*
X180454303Y-96542009D01*
X180454303Y-96542009D02*
X180454303Y-97065819D01*
X180930493Y-97065819D02*
X180930493Y-96399152D01*
X180930493Y-96494390D02*
X180978112Y-96446771D01*
X180978112Y-96446771D02*
X181073350Y-96399152D01*
X181073350Y-96399152D02*
X181216207Y-96399152D01*
X181216207Y-96399152D02*
X181311445Y-96446771D01*
X181311445Y-96446771D02*
X181359064Y-96542009D01*
X181359064Y-96542009D02*
X181359064Y-97065819D01*
X181359064Y-96542009D02*
X181406683Y-96446771D01*
X181406683Y-96446771D02*
X181501921Y-96399152D01*
X181501921Y-96399152D02*
X181644778Y-96399152D01*
X181644778Y-96399152D02*
X181740017Y-96446771D01*
X181740017Y-96446771D02*
X181787636Y-96542009D01*
X181787636Y-96542009D02*
X181787636Y-97065819D01*
X182930493Y-97065819D02*
X183454302Y-96399152D01*
X182930493Y-96399152D02*
X183454302Y-97065819D01*
X184549541Y-96161057D02*
X184597160Y-96113438D01*
X184597160Y-96113438D02*
X184692398Y-96065819D01*
X184692398Y-96065819D02*
X184930493Y-96065819D01*
X184930493Y-96065819D02*
X185025731Y-96113438D01*
X185025731Y-96113438D02*
X185073350Y-96161057D01*
X185073350Y-96161057D02*
X185120969Y-96256295D01*
X185120969Y-96256295D02*
X185120969Y-96351533D01*
X185120969Y-96351533D02*
X185073350Y-96494390D01*
X185073350Y-96494390D02*
X184501922Y-97065819D01*
X184501922Y-97065819D02*
X185120969Y-97065819D01*
X185740017Y-96065819D02*
X185835255Y-96065819D01*
X185835255Y-96065819D02*
X185930493Y-96113438D01*
X185930493Y-96113438D02*
X185978112Y-96161057D01*
X185978112Y-96161057D02*
X186025731Y-96256295D01*
X186025731Y-96256295D02*
X186073350Y-96446771D01*
X186073350Y-96446771D02*
X186073350Y-96684866D01*
X186073350Y-96684866D02*
X186025731Y-96875342D01*
X186025731Y-96875342D02*
X185978112Y-96970580D01*
X185978112Y-96970580D02*
X185930493Y-97018200D01*
X185930493Y-97018200D02*
X185835255Y-97065819D01*
X185835255Y-97065819D02*
X185740017Y-97065819D01*
X185740017Y-97065819D02*
X185644779Y-97018200D01*
X185644779Y-97018200D02*
X185597160Y-96970580D01*
X185597160Y-96970580D02*
X185549541Y-96875342D01*
X185549541Y-96875342D02*
X185501922Y-96684866D01*
X185501922Y-96684866D02*
X185501922Y-96446771D01*
X185501922Y-96446771D02*
X185549541Y-96256295D01*
X185549541Y-96256295D02*
X185597160Y-96161057D01*
X185597160Y-96161057D02*
X185644779Y-96113438D01*
X185644779Y-96113438D02*
X185740017Y-96065819D01*
X186501922Y-97065819D02*
X186501922Y-96399152D01*
X186501922Y-96494390D02*
X186549541Y-96446771D01*
X186549541Y-96446771D02*
X186644779Y-96399152D01*
X186644779Y-96399152D02*
X186787636Y-96399152D01*
X186787636Y-96399152D02*
X186882874Y-96446771D01*
X186882874Y-96446771D02*
X186930493Y-96542009D01*
X186930493Y-96542009D02*
X186930493Y-97065819D01*
X186930493Y-96542009D02*
X186978112Y-96446771D01*
X186978112Y-96446771D02*
X187073350Y-96399152D01*
X187073350Y-96399152D02*
X187216207Y-96399152D01*
X187216207Y-96399152D02*
X187311446Y-96446771D01*
X187311446Y-96446771D02*
X187359065Y-96542009D01*
X187359065Y-96542009D02*
X187359065Y-97065819D01*
X187835255Y-97065819D02*
X187835255Y-96399152D01*
X187835255Y-96494390D02*
X187882874Y-96446771D01*
X187882874Y-96446771D02*
X187978112Y-96399152D01*
X187978112Y-96399152D02*
X188120969Y-96399152D01*
X188120969Y-96399152D02*
X188216207Y-96446771D01*
X188216207Y-96446771D02*
X188263826Y-96542009D01*
X188263826Y-96542009D02*
X188263826Y-97065819D01*
X188263826Y-96542009D02*
X188311445Y-96446771D01*
X188311445Y-96446771D02*
X188406683Y-96399152D01*
X188406683Y-96399152D02*
X188549540Y-96399152D01*
X188549540Y-96399152D02*
X188644779Y-96446771D01*
X188644779Y-96446771D02*
X188692398Y-96542009D01*
X188692398Y-96542009D02*
X188692398Y-97065819D01*
X179168588Y-98675819D02*
X178597160Y-98675819D01*
X178882874Y-98675819D02*
X178882874Y-97675819D01*
X178882874Y-97675819D02*
X178787636Y-97818676D01*
X178787636Y-97818676D02*
X178692398Y-97913914D01*
X178692398Y-97913914D02*
X178597160Y-97961533D01*
X179787636Y-97675819D02*
X179882874Y-97675819D01*
X179882874Y-97675819D02*
X179978112Y-97723438D01*
X179978112Y-97723438D02*
X180025731Y-97771057D01*
X180025731Y-97771057D02*
X180073350Y-97866295D01*
X180073350Y-97866295D02*
X180120969Y-98056771D01*
X180120969Y-98056771D02*
X180120969Y-98294866D01*
X180120969Y-98294866D02*
X180073350Y-98485342D01*
X180073350Y-98485342D02*
X180025731Y-98580580D01*
X180025731Y-98580580D02*
X179978112Y-98628200D01*
X179978112Y-98628200D02*
X179882874Y-98675819D01*
X179882874Y-98675819D02*
X179787636Y-98675819D01*
X179787636Y-98675819D02*
X179692398Y-98628200D01*
X179692398Y-98628200D02*
X179644779Y-98580580D01*
X179644779Y-98580580D02*
X179597160Y-98485342D01*
X179597160Y-98485342D02*
X179549541Y-98294866D01*
X179549541Y-98294866D02*
X179549541Y-98056771D01*
X179549541Y-98056771D02*
X179597160Y-97866295D01*
X179597160Y-97866295D02*
X179644779Y-97771057D01*
X179644779Y-97771057D02*
X179692398Y-97723438D01*
X179692398Y-97723438D02*
X179787636Y-97675819D01*
X180740017Y-97675819D02*
X180835255Y-97675819D01*
X180835255Y-97675819D02*
X180930493Y-97723438D01*
X180930493Y-97723438D02*
X180978112Y-97771057D01*
X180978112Y-97771057D02*
X181025731Y-97866295D01*
X181025731Y-97866295D02*
X181073350Y-98056771D01*
X181073350Y-98056771D02*
X181073350Y-98294866D01*
X181073350Y-98294866D02*
X181025731Y-98485342D01*
X181025731Y-98485342D02*
X180978112Y-98580580D01*
X180978112Y-98580580D02*
X180930493Y-98628200D01*
X180930493Y-98628200D02*
X180835255Y-98675819D01*
X180835255Y-98675819D02*
X180740017Y-98675819D01*
X180740017Y-98675819D02*
X180644779Y-98628200D01*
X180644779Y-98628200D02*
X180597160Y-98580580D01*
X180597160Y-98580580D02*
X180549541Y-98485342D01*
X180549541Y-98485342D02*
X180501922Y-98294866D01*
X180501922Y-98294866D02*
X180501922Y-98056771D01*
X180501922Y-98056771D02*
X180549541Y-97866295D01*
X180549541Y-97866295D02*
X180597160Y-97771057D01*
X180597160Y-97771057D02*
X180644779Y-97723438D01*
X180644779Y-97723438D02*
X180740017Y-97675819D01*
X181501922Y-98675819D02*
X181501922Y-98009152D01*
X181501922Y-98104390D02*
X181549541Y-98056771D01*
X181549541Y-98056771D02*
X181644779Y-98009152D01*
X181644779Y-98009152D02*
X181787636Y-98009152D01*
X181787636Y-98009152D02*
X181882874Y-98056771D01*
X181882874Y-98056771D02*
X181930493Y-98152009D01*
X181930493Y-98152009D02*
X181930493Y-98675819D01*
X181930493Y-98152009D02*
X181978112Y-98056771D01*
X181978112Y-98056771D02*
X182073350Y-98009152D01*
X182073350Y-98009152D02*
X182216207Y-98009152D01*
X182216207Y-98009152D02*
X182311446Y-98056771D01*
X182311446Y-98056771D02*
X182359065Y-98152009D01*
X182359065Y-98152009D02*
X182359065Y-98675819D01*
X183263826Y-98675819D02*
X183263826Y-98152009D01*
X183263826Y-98152009D02*
X183216207Y-98056771D01*
X183216207Y-98056771D02*
X183120969Y-98009152D01*
X183120969Y-98009152D02*
X182930493Y-98009152D01*
X182930493Y-98009152D02*
X182835255Y-98056771D01*
X183263826Y-98628200D02*
X183168588Y-98675819D01*
X183168588Y-98675819D02*
X182930493Y-98675819D01*
X182930493Y-98675819D02*
X182835255Y-98628200D01*
X182835255Y-98628200D02*
X182787636Y-98532961D01*
X182787636Y-98532961D02*
X182787636Y-98437723D01*
X182787636Y-98437723D02*
X182835255Y-98342485D01*
X182835255Y-98342485D02*
X182930493Y-98294866D01*
X182930493Y-98294866D02*
X183168588Y-98294866D01*
X183168588Y-98294866D02*
X183263826Y-98247247D01*
X178490009Y-103076333D02*
X178490009Y-103409666D01*
X179013819Y-103409666D02*
X178013819Y-103409666D01*
X178013819Y-103409666D02*
X178013819Y-102933476D01*
X179013819Y-102028714D02*
X179013819Y-102600142D01*
X179013819Y-102314428D02*
X178013819Y-102314428D01*
X178013819Y-102314428D02*
X178156676Y-102409666D01*
X178156676Y-102409666D02*
X178251914Y-102504904D01*
X178251914Y-102504904D02*
X178299533Y-102600142D01*
X187922819Y-80089189D02*
X187922819Y-79470142D01*
X187922819Y-79470142D02*
X188303771Y-79803475D01*
X188303771Y-79803475D02*
X188303771Y-79660618D01*
X188303771Y-79660618D02*
X188351390Y-79565380D01*
X188351390Y-79565380D02*
X188399009Y-79517761D01*
X188399009Y-79517761D02*
X188494247Y-79470142D01*
X188494247Y-79470142D02*
X188732342Y-79470142D01*
X188732342Y-79470142D02*
X188827580Y-79517761D01*
X188827580Y-79517761D02*
X188875200Y-79565380D01*
X188875200Y-79565380D02*
X188922819Y-79660618D01*
X188922819Y-79660618D02*
X188922819Y-79946332D01*
X188922819Y-79946332D02*
X188875200Y-80041570D01*
X188875200Y-80041570D02*
X188827580Y-80089189D01*
X188827580Y-79041570D02*
X188875200Y-78993951D01*
X188875200Y-78993951D02*
X188922819Y-79041570D01*
X188922819Y-79041570D02*
X188875200Y-79089189D01*
X188875200Y-79089189D02*
X188827580Y-79041570D01*
X188827580Y-79041570D02*
X188922819Y-79041570D01*
X187922819Y-78136809D02*
X187922819Y-78327285D01*
X187922819Y-78327285D02*
X187970438Y-78422523D01*
X187970438Y-78422523D02*
X188018057Y-78470142D01*
X188018057Y-78470142D02*
X188160914Y-78565380D01*
X188160914Y-78565380D02*
X188351390Y-78612999D01*
X188351390Y-78612999D02*
X188732342Y-78612999D01*
X188732342Y-78612999D02*
X188827580Y-78565380D01*
X188827580Y-78565380D02*
X188875200Y-78517761D01*
X188875200Y-78517761D02*
X188922819Y-78422523D01*
X188922819Y-78422523D02*
X188922819Y-78232047D01*
X188922819Y-78232047D02*
X188875200Y-78136809D01*
X188875200Y-78136809D02*
X188827580Y-78089190D01*
X188827580Y-78089190D02*
X188732342Y-78041571D01*
X188732342Y-78041571D02*
X188494247Y-78041571D01*
X188494247Y-78041571D02*
X188399009Y-78089190D01*
X188399009Y-78089190D02*
X188351390Y-78136809D01*
X188351390Y-78136809D02*
X188303771Y-78232047D01*
X188303771Y-78232047D02*
X188303771Y-78422523D01*
X188303771Y-78422523D02*
X188351390Y-78517761D01*
X188351390Y-78517761D02*
X188399009Y-78565380D01*
X188399009Y-78565380D02*
X188494247Y-78612999D01*
X187922819Y-77755856D02*
X188922819Y-77422523D01*
X188922819Y-77422523D02*
X187922819Y-77089190D01*
D12*
%TO.C,J1*%
X193100000Y-94294000D02*
X191770000Y-94294000D01*
X193100000Y-92964000D02*
X193100000Y-94294000D01*
X193100000Y-91694000D02*
X193100000Y-84014000D01*
X193100000Y-91694000D02*
X190440000Y-91694000D01*
X193100000Y-84014000D02*
X190440000Y-84014000D01*
X190440000Y-91694000D02*
X190440000Y-84014000D01*
D13*
%TO.C,F1*%
X152641300Y-94361000D02*
X152641300Y-97852174D01*
X152641300Y-100521826D02*
X152641300Y-104013000D01*
X152641300Y-104013000D02*
X177304700Y-104013000D01*
X177304700Y-94361000D02*
X152641300Y-94361000D01*
X177304700Y-98338119D02*
X177304700Y-94361000D01*
X177304700Y-104013000D02*
X177304700Y-100035881D01*
D12*
%TO.C,D1*%
X146993000Y-92763000D02*
X146993000Y-87323000D01*
X147123000Y-92763000D02*
X146993000Y-92763000D01*
X149803000Y-92763000D02*
X149933000Y-92763000D01*
X149933000Y-92763000D02*
X149933000Y-87323000D01*
X146993000Y-91983000D02*
X149933000Y-91983000D01*
X146993000Y-91863000D02*
X149933000Y-91863000D01*
X146993000Y-91743000D02*
X149933000Y-91743000D01*
X146993000Y-87323000D02*
X147123000Y-87323000D01*
X149933000Y-87323000D02*
X149803000Y-87323000D01*
D14*
%TO.C,3.6V*%
X151248500Y-84782000D02*
X152248500Y-84782000D01*
X151748500Y-84282000D02*
X151748500Y-85282000D01*
X152728500Y-76652000D02*
X153748500Y-76652000D01*
X152728500Y-92912000D02*
X152728500Y-76652000D01*
X156778500Y-76652000D02*
X187268500Y-76652000D01*
X187268500Y-76652000D02*
X187268500Y-92912000D01*
X187268500Y-92912000D02*
X152728500Y-92912000D01*
X187748500Y-84782000D02*
X188748500Y-84782000D01*
%TD*%
M02*
