%TF.GenerationSoftware,KiCad,Pcbnew,7.0.7*%
%TF.CreationDate,2023-12-17T00:13:02-06:00*%
%TF.ProjectId,Half AA Lithium Battery Board,48616c66-2041-4412-904c-69746869756d,rev?*%
%TF.SameCoordinates,Original*%
%TF.FileFunction,Copper,L1,Top*%
%TF.FilePolarity,Positive*%
%FSLAX46Y46*%
G04 Gerber Fmt 4.6, Leading zero omitted, Abs format (unit mm)*
G04 Created by KiCad (PCBNEW 7.0.7) date 2023-12-17 00:13:02*
%MOMM*%
%LPD*%
G01*
G04 APERTURE LIST*
%TA.AperFunction,ComponentPad*%
%ADD10R,1.700000X1.700000*%
%TD*%
%TA.AperFunction,ComponentPad*%
%ADD11O,1.700000X1.700000*%
%TD*%
%TA.AperFunction,ComponentPad*%
%ADD12R,2.006600X2.006600*%
%TD*%
%TA.AperFunction,ComponentPad*%
%ADD13C,2.006600*%
%TD*%
%TA.AperFunction,ComponentPad*%
%ADD14C,1.785000*%
%TD*%
%TA.AperFunction,SMDPad,CuDef*%
%ADD15R,0.950000X0.450000*%
%TD*%
%TA.AperFunction,Conductor*%
%ADD16C,0.250000*%
%TD*%
G04 APERTURE END LIST*
D10*
%TO.P,J1,1,Pin_1*%
%TO.N,Net-(D1-VOUT)*%
X191770000Y-92964000D03*
D11*
%TO.P,J1,2,Pin_2*%
%TO.N,unconnected-(J1-Pin_2-Pad2)*%
X191770000Y-90424000D03*
%TO.P,J1,3,Pin_3*%
%TO.N,unconnected-(J1-Pin_3-Pad3)*%
X191770000Y-87884000D03*
%TO.P,J1,4,Pin_4*%
%TO.N,Net-(D1-GND)*%
X191770000Y-85344000D03*
%TD*%
D12*
%TO.P,F1,1,1*%
%TO.N,Net-(3.6V1-PadP)*%
X153673000Y-99187000D03*
D13*
%TO.P,F1,2,2*%
%TO.N,Net-(D1-VIN)*%
X176273000Y-99187000D03*
%TD*%
D14*
%TO.P,3.6V1,N*%
%TO.N,Net-(D1-GND)*%
X184728500Y-84782000D03*
%TO.P,3.6V1,P*%
%TO.N,Net-(3.6V1-PadP)*%
X155268500Y-84782000D03*
%TD*%
D15*
%TO.P,D1,1,VIN*%
%TO.N,Net-(D1-VIN)*%
X183800000Y-100700000D03*
%TO.P,D1,2,GND*%
%TO.N,Net-(D1-GND)*%
X183800000Y-101350000D03*
%TO.P,D1,3,~{CE}*%
%TO.N,Net-(D1-VOUT)*%
X183800000Y-102000000D03*
%TO.P,D1,4,N/C*%
%TO.N,unconnected-(D1-N{slash}C-Pad4)*%
X186000000Y-102000000D03*
%TO.P,D1,5,ST*%
%TO.N,Net-(D1-GND)*%
X186000000Y-101350000D03*
%TO.P,D1,6,VOUT*%
%TO.N,Net-(D1-VOUT)*%
X186000000Y-100700000D03*
%TD*%
D16*
%TO.N,Net-(D1-GND)*%
X185198100Y-85251600D02*
X185198100Y-85344000D01*
X185198100Y-101350000D02*
X183800000Y-101350000D01*
X184728500Y-84782000D02*
X185198100Y-85251600D01*
X191770000Y-85344000D02*
X190593100Y-85344000D01*
X185198100Y-85344000D02*
X185198100Y-101350000D01*
X185198100Y-85344000D02*
X190593100Y-85344000D01*
X186000000Y-101350000D02*
X185198100Y-101350000D01*
%TO.N,Net-(D1-VIN)*%
X183800000Y-100700000D02*
X177786000Y-100700000D01*
X177786000Y-100700000D02*
X176273000Y-99187000D01*
%TO.N,Net-(D1-VOUT)*%
X191770000Y-94140900D02*
X186801900Y-99109000D01*
X186801900Y-99109000D02*
X186801900Y-100700000D01*
X186700400Y-102551900D02*
X185153800Y-102551900D01*
X185153800Y-102551900D02*
X184601900Y-102000000D01*
X186000000Y-100700000D02*
X186801900Y-100700000D01*
X191770000Y-92964000D02*
X191770000Y-94140900D01*
X183800000Y-102000000D02*
X184601900Y-102000000D01*
X186801900Y-100700000D02*
X186801900Y-102450400D01*
X186801900Y-102450400D02*
X186700400Y-102551900D01*
%TD*%
M02*
