%TF.GenerationSoftware,KiCad,Pcbnew,7.0.7*%
%TF.CreationDate,2023-12-17T00:13:02-06:00*%
%TF.ProjectId,Half AA Lithium Battery Board,48616c66-2041-4412-904c-69746869756d,rev?*%
%TF.SameCoordinates,Original*%
%TF.FileFunction,Legend,Bot*%
%TF.FilePolarity,Positive*%
%FSLAX46Y46*%
G04 Gerber Fmt 4.6, Leading zero omitted, Abs format (unit mm)*
G04 Created by KiCad (PCBNEW 7.0.7) date 2023-12-17 00:13:02*
%MOMM*%
%LPD*%
G01*
G04 APERTURE LIST*
%ADD10C,0.150000*%
%ADD11C,0.200000*%
G04 APERTURE END LIST*
D10*
X155702000Y-97028000D02*
X160782000Y-97028000D01*
X160782000Y-102108000D01*
X155702000Y-102108000D01*
X155702000Y-97028000D01*
G36*
X155702000Y-97028000D02*
G01*
X160782000Y-97028000D01*
X160782000Y-102108000D01*
X155702000Y-102108000D01*
X155702000Y-97028000D01*
G37*
X189401220Y-88343819D02*
X189401220Y-87343819D01*
X189401220Y-87343819D02*
X189163125Y-87343819D01*
X189163125Y-87343819D02*
X189020268Y-87391438D01*
X189020268Y-87391438D02*
X188925030Y-87486676D01*
X188925030Y-87486676D02*
X188877411Y-87581914D01*
X188877411Y-87581914D02*
X188829792Y-87772390D01*
X188829792Y-87772390D02*
X188829792Y-87915247D01*
X188829792Y-87915247D02*
X188877411Y-88105723D01*
X188877411Y-88105723D02*
X188925030Y-88200961D01*
X188925030Y-88200961D02*
X189020268Y-88296200D01*
X189020268Y-88296200D02*
X189163125Y-88343819D01*
X189163125Y-88343819D02*
X189401220Y-88343819D01*
X188258363Y-88343819D02*
X188353601Y-88296200D01*
X188353601Y-88296200D02*
X188401220Y-88248580D01*
X188401220Y-88248580D02*
X188448839Y-88153342D01*
X188448839Y-88153342D02*
X188448839Y-87867628D01*
X188448839Y-87867628D02*
X188401220Y-87772390D01*
X188401220Y-87772390D02*
X188353601Y-87724771D01*
X188353601Y-87724771D02*
X188258363Y-87677152D01*
X188258363Y-87677152D02*
X188115506Y-87677152D01*
X188115506Y-87677152D02*
X188020268Y-87724771D01*
X188020268Y-87724771D02*
X187972649Y-87772390D01*
X187972649Y-87772390D02*
X187925030Y-87867628D01*
X187925030Y-87867628D02*
X187925030Y-88153342D01*
X187925030Y-88153342D02*
X187972649Y-88248580D01*
X187972649Y-88248580D02*
X188020268Y-88296200D01*
X188020268Y-88296200D02*
X188115506Y-88343819D01*
X188115506Y-88343819D02*
X188258363Y-88343819D01*
X187067887Y-87677152D02*
X187067887Y-88343819D01*
X187496458Y-87677152D02*
X187496458Y-88200961D01*
X187496458Y-88200961D02*
X187448839Y-88296200D01*
X187448839Y-88296200D02*
X187353601Y-88343819D01*
X187353601Y-88343819D02*
X187210744Y-88343819D01*
X187210744Y-88343819D02*
X187115506Y-88296200D01*
X187115506Y-88296200D02*
X187067887Y-88248580D01*
X186591696Y-88343819D02*
X186591696Y-87343819D01*
X186591696Y-87724771D02*
X186496458Y-87677152D01*
X186496458Y-87677152D02*
X186305982Y-87677152D01*
X186305982Y-87677152D02*
X186210744Y-87724771D01*
X186210744Y-87724771D02*
X186163125Y-87772390D01*
X186163125Y-87772390D02*
X186115506Y-87867628D01*
X186115506Y-87867628D02*
X186115506Y-88153342D01*
X186115506Y-88153342D02*
X186163125Y-88248580D01*
X186163125Y-88248580D02*
X186210744Y-88296200D01*
X186210744Y-88296200D02*
X186305982Y-88343819D01*
X186305982Y-88343819D02*
X186496458Y-88343819D01*
X186496458Y-88343819D02*
X186591696Y-88296200D01*
X185544077Y-88343819D02*
X185639315Y-88296200D01*
X185639315Y-88296200D02*
X185686934Y-88200961D01*
X185686934Y-88200961D02*
X185686934Y-87343819D01*
X184782172Y-88296200D02*
X184877410Y-88343819D01*
X184877410Y-88343819D02*
X185067886Y-88343819D01*
X185067886Y-88343819D02*
X185163124Y-88296200D01*
X185163124Y-88296200D02*
X185210743Y-88200961D01*
X185210743Y-88200961D02*
X185210743Y-87820009D01*
X185210743Y-87820009D02*
X185163124Y-87724771D01*
X185163124Y-87724771D02*
X185067886Y-87677152D01*
X185067886Y-87677152D02*
X184877410Y-87677152D01*
X184877410Y-87677152D02*
X184782172Y-87724771D01*
X184782172Y-87724771D02*
X184734553Y-87820009D01*
X184734553Y-87820009D02*
X184734553Y-87915247D01*
X184734553Y-87915247D02*
X185210743Y-88010485D01*
X183115505Y-88296200D02*
X183210743Y-88343819D01*
X183210743Y-88343819D02*
X183401219Y-88343819D01*
X183401219Y-88343819D02*
X183496457Y-88296200D01*
X183496457Y-88296200D02*
X183544076Y-88248580D01*
X183544076Y-88248580D02*
X183591695Y-88153342D01*
X183591695Y-88153342D02*
X183591695Y-87867628D01*
X183591695Y-87867628D02*
X183544076Y-87772390D01*
X183544076Y-87772390D02*
X183496457Y-87724771D01*
X183496457Y-87724771D02*
X183401219Y-87677152D01*
X183401219Y-87677152D02*
X183210743Y-87677152D01*
X183210743Y-87677152D02*
X183115505Y-87724771D01*
X182686933Y-88343819D02*
X182686933Y-87343819D01*
X182258362Y-88343819D02*
X182258362Y-87820009D01*
X182258362Y-87820009D02*
X182305981Y-87724771D01*
X182305981Y-87724771D02*
X182401219Y-87677152D01*
X182401219Y-87677152D02*
X182544076Y-87677152D01*
X182544076Y-87677152D02*
X182639314Y-87724771D01*
X182639314Y-87724771D02*
X182686933Y-87772390D01*
X181401219Y-88296200D02*
X181496457Y-88343819D01*
X181496457Y-88343819D02*
X181686933Y-88343819D01*
X181686933Y-88343819D02*
X181782171Y-88296200D01*
X181782171Y-88296200D02*
X181829790Y-88200961D01*
X181829790Y-88200961D02*
X181829790Y-87820009D01*
X181829790Y-87820009D02*
X181782171Y-87724771D01*
X181782171Y-87724771D02*
X181686933Y-87677152D01*
X181686933Y-87677152D02*
X181496457Y-87677152D01*
X181496457Y-87677152D02*
X181401219Y-87724771D01*
X181401219Y-87724771D02*
X181353600Y-87820009D01*
X181353600Y-87820009D02*
X181353600Y-87915247D01*
X181353600Y-87915247D02*
X181829790Y-88010485D01*
X180496457Y-88296200D02*
X180591695Y-88343819D01*
X180591695Y-88343819D02*
X180782171Y-88343819D01*
X180782171Y-88343819D02*
X180877409Y-88296200D01*
X180877409Y-88296200D02*
X180925028Y-88248580D01*
X180925028Y-88248580D02*
X180972647Y-88153342D01*
X180972647Y-88153342D02*
X180972647Y-87867628D01*
X180972647Y-87867628D02*
X180925028Y-87772390D01*
X180925028Y-87772390D02*
X180877409Y-87724771D01*
X180877409Y-87724771D02*
X180782171Y-87677152D01*
X180782171Y-87677152D02*
X180591695Y-87677152D01*
X180591695Y-87677152D02*
X180496457Y-87724771D01*
X180067885Y-88343819D02*
X180067885Y-87343819D01*
X179972647Y-87962866D02*
X179686933Y-88343819D01*
X179686933Y-87677152D02*
X180067885Y-88058104D01*
X178496456Y-87677152D02*
X178496456Y-88677152D01*
X178496456Y-87724771D02*
X178401218Y-87677152D01*
X178401218Y-87677152D02*
X178210742Y-87677152D01*
X178210742Y-87677152D02*
X178115504Y-87724771D01*
X178115504Y-87724771D02*
X178067885Y-87772390D01*
X178067885Y-87772390D02*
X178020266Y-87867628D01*
X178020266Y-87867628D02*
X178020266Y-88153342D01*
X178020266Y-88153342D02*
X178067885Y-88248580D01*
X178067885Y-88248580D02*
X178115504Y-88296200D01*
X178115504Y-88296200D02*
X178210742Y-88343819D01*
X178210742Y-88343819D02*
X178401218Y-88343819D01*
X178401218Y-88343819D02*
X178496456Y-88296200D01*
X177448837Y-88343819D02*
X177544075Y-88296200D01*
X177544075Y-88296200D02*
X177591694Y-88248580D01*
X177591694Y-88248580D02*
X177639313Y-88153342D01*
X177639313Y-88153342D02*
X177639313Y-87867628D01*
X177639313Y-87867628D02*
X177591694Y-87772390D01*
X177591694Y-87772390D02*
X177544075Y-87724771D01*
X177544075Y-87724771D02*
X177448837Y-87677152D01*
X177448837Y-87677152D02*
X177305980Y-87677152D01*
X177305980Y-87677152D02*
X177210742Y-87724771D01*
X177210742Y-87724771D02*
X177163123Y-87772390D01*
X177163123Y-87772390D02*
X177115504Y-87867628D01*
X177115504Y-87867628D02*
X177115504Y-88153342D01*
X177115504Y-88153342D02*
X177163123Y-88248580D01*
X177163123Y-88248580D02*
X177210742Y-88296200D01*
X177210742Y-88296200D02*
X177305980Y-88343819D01*
X177305980Y-88343819D02*
X177448837Y-88343819D01*
X176544075Y-88343819D02*
X176639313Y-88296200D01*
X176639313Y-88296200D02*
X176686932Y-88200961D01*
X176686932Y-88200961D02*
X176686932Y-87343819D01*
X175734551Y-88343819D02*
X175734551Y-87820009D01*
X175734551Y-87820009D02*
X175782170Y-87724771D01*
X175782170Y-87724771D02*
X175877408Y-87677152D01*
X175877408Y-87677152D02*
X176067884Y-87677152D01*
X176067884Y-87677152D02*
X176163122Y-87724771D01*
X175734551Y-88296200D02*
X175829789Y-88343819D01*
X175829789Y-88343819D02*
X176067884Y-88343819D01*
X176067884Y-88343819D02*
X176163122Y-88296200D01*
X176163122Y-88296200D02*
X176210741Y-88200961D01*
X176210741Y-88200961D02*
X176210741Y-88105723D01*
X176210741Y-88105723D02*
X176163122Y-88010485D01*
X176163122Y-88010485D02*
X176067884Y-87962866D01*
X176067884Y-87962866D02*
X175829789Y-87962866D01*
X175829789Y-87962866D02*
X175734551Y-87915247D01*
X175258360Y-88343819D02*
X175258360Y-87677152D01*
X175258360Y-87867628D02*
X175210741Y-87772390D01*
X175210741Y-87772390D02*
X175163122Y-87724771D01*
X175163122Y-87724771D02*
X175067884Y-87677152D01*
X175067884Y-87677152D02*
X174972646Y-87677152D01*
X174639312Y-88343819D02*
X174639312Y-87677152D01*
X174639312Y-87343819D02*
X174686931Y-87391438D01*
X174686931Y-87391438D02*
X174639312Y-87439057D01*
X174639312Y-87439057D02*
X174591693Y-87391438D01*
X174591693Y-87391438D02*
X174639312Y-87343819D01*
X174639312Y-87343819D02*
X174639312Y-87439057D01*
X174305979Y-87677152D02*
X173925027Y-87677152D01*
X174163122Y-87343819D02*
X174163122Y-88200961D01*
X174163122Y-88200961D02*
X174115503Y-88296200D01*
X174115503Y-88296200D02*
X174020265Y-88343819D01*
X174020265Y-88343819D02*
X173925027Y-88343819D01*
X173686931Y-87677152D02*
X173448836Y-88343819D01*
X173210741Y-87677152D02*
X173448836Y-88343819D01*
X173448836Y-88343819D02*
X173544074Y-88581914D01*
X173544074Y-88581914D02*
X173591693Y-88629533D01*
X173591693Y-88629533D02*
X173686931Y-88677152D01*
X172067883Y-88343819D02*
X172067883Y-87343819D01*
X172067883Y-87724771D02*
X171972645Y-87677152D01*
X171972645Y-87677152D02*
X171782169Y-87677152D01*
X171782169Y-87677152D02*
X171686931Y-87724771D01*
X171686931Y-87724771D02*
X171639312Y-87772390D01*
X171639312Y-87772390D02*
X171591693Y-87867628D01*
X171591693Y-87867628D02*
X171591693Y-88153342D01*
X171591693Y-88153342D02*
X171639312Y-88248580D01*
X171639312Y-88248580D02*
X171686931Y-88296200D01*
X171686931Y-88296200D02*
X171782169Y-88343819D01*
X171782169Y-88343819D02*
X171972645Y-88343819D01*
X171972645Y-88343819D02*
X172067883Y-88296200D01*
X170782169Y-88296200D02*
X170877407Y-88343819D01*
X170877407Y-88343819D02*
X171067883Y-88343819D01*
X171067883Y-88343819D02*
X171163121Y-88296200D01*
X171163121Y-88296200D02*
X171210740Y-88200961D01*
X171210740Y-88200961D02*
X171210740Y-87820009D01*
X171210740Y-87820009D02*
X171163121Y-87724771D01*
X171163121Y-87724771D02*
X171067883Y-87677152D01*
X171067883Y-87677152D02*
X170877407Y-87677152D01*
X170877407Y-87677152D02*
X170782169Y-87724771D01*
X170782169Y-87724771D02*
X170734550Y-87820009D01*
X170734550Y-87820009D02*
X170734550Y-87915247D01*
X170734550Y-87915247D02*
X171210740Y-88010485D01*
X170448835Y-87677152D02*
X170067883Y-87677152D01*
X170305978Y-88343819D02*
X170305978Y-87486676D01*
X170305978Y-87486676D02*
X170258359Y-87391438D01*
X170258359Y-87391438D02*
X170163121Y-87343819D01*
X170163121Y-87343819D02*
X170067883Y-87343819D01*
X169591692Y-88343819D02*
X169686930Y-88296200D01*
X169686930Y-88296200D02*
X169734549Y-88248580D01*
X169734549Y-88248580D02*
X169782168Y-88153342D01*
X169782168Y-88153342D02*
X169782168Y-87867628D01*
X169782168Y-87867628D02*
X169734549Y-87772390D01*
X169734549Y-87772390D02*
X169686930Y-87724771D01*
X169686930Y-87724771D02*
X169591692Y-87677152D01*
X169591692Y-87677152D02*
X169448835Y-87677152D01*
X169448835Y-87677152D02*
X169353597Y-87724771D01*
X169353597Y-87724771D02*
X169305978Y-87772390D01*
X169305978Y-87772390D02*
X169258359Y-87867628D01*
X169258359Y-87867628D02*
X169258359Y-88153342D01*
X169258359Y-88153342D02*
X169305978Y-88248580D01*
X169305978Y-88248580D02*
X169353597Y-88296200D01*
X169353597Y-88296200D02*
X169448835Y-88343819D01*
X169448835Y-88343819D02*
X169591692Y-88343819D01*
X168829787Y-88343819D02*
X168829787Y-87677152D01*
X168829787Y-87867628D02*
X168782168Y-87772390D01*
X168782168Y-87772390D02*
X168734549Y-87724771D01*
X168734549Y-87724771D02*
X168639311Y-87677152D01*
X168639311Y-87677152D02*
X168544073Y-87677152D01*
X167829787Y-88296200D02*
X167925025Y-88343819D01*
X167925025Y-88343819D02*
X168115501Y-88343819D01*
X168115501Y-88343819D02*
X168210739Y-88296200D01*
X168210739Y-88296200D02*
X168258358Y-88200961D01*
X168258358Y-88200961D02*
X168258358Y-87820009D01*
X168258358Y-87820009D02*
X168210739Y-87724771D01*
X168210739Y-87724771D02*
X168115501Y-87677152D01*
X168115501Y-87677152D02*
X167925025Y-87677152D01*
X167925025Y-87677152D02*
X167829787Y-87724771D01*
X167829787Y-87724771D02*
X167782168Y-87820009D01*
X167782168Y-87820009D02*
X167782168Y-87915247D01*
X167782168Y-87915247D02*
X168258358Y-88010485D01*
X166591691Y-88343819D02*
X166591691Y-87677152D01*
X166591691Y-87343819D02*
X166639310Y-87391438D01*
X166639310Y-87391438D02*
X166591691Y-87439057D01*
X166591691Y-87439057D02*
X166544072Y-87391438D01*
X166544072Y-87391438D02*
X166591691Y-87343819D01*
X166591691Y-87343819D02*
X166591691Y-87439057D01*
X166115501Y-87677152D02*
X166115501Y-88343819D01*
X166115501Y-87772390D02*
X166067882Y-87724771D01*
X166067882Y-87724771D02*
X165972644Y-87677152D01*
X165972644Y-87677152D02*
X165829787Y-87677152D01*
X165829787Y-87677152D02*
X165734549Y-87724771D01*
X165734549Y-87724771D02*
X165686930Y-87820009D01*
X165686930Y-87820009D02*
X165686930Y-88343819D01*
X165258358Y-88296200D02*
X165163120Y-88343819D01*
X165163120Y-88343819D02*
X164972644Y-88343819D01*
X164972644Y-88343819D02*
X164877406Y-88296200D01*
X164877406Y-88296200D02*
X164829787Y-88200961D01*
X164829787Y-88200961D02*
X164829787Y-88153342D01*
X164829787Y-88153342D02*
X164877406Y-88058104D01*
X164877406Y-88058104D02*
X164972644Y-88010485D01*
X164972644Y-88010485D02*
X165115501Y-88010485D01*
X165115501Y-88010485D02*
X165210739Y-87962866D01*
X165210739Y-87962866D02*
X165258358Y-87867628D01*
X165258358Y-87867628D02*
X165258358Y-87820009D01*
X165258358Y-87820009D02*
X165210739Y-87724771D01*
X165210739Y-87724771D02*
X165115501Y-87677152D01*
X165115501Y-87677152D02*
X164972644Y-87677152D01*
X164972644Y-87677152D02*
X164877406Y-87724771D01*
X164544072Y-87677152D02*
X164163120Y-87677152D01*
X164401215Y-87343819D02*
X164401215Y-88200961D01*
X164401215Y-88200961D02*
X164353596Y-88296200D01*
X164353596Y-88296200D02*
X164258358Y-88343819D01*
X164258358Y-88343819D02*
X164163120Y-88343819D01*
X163401215Y-88343819D02*
X163401215Y-87820009D01*
X163401215Y-87820009D02*
X163448834Y-87724771D01*
X163448834Y-87724771D02*
X163544072Y-87677152D01*
X163544072Y-87677152D02*
X163734548Y-87677152D01*
X163734548Y-87677152D02*
X163829786Y-87724771D01*
X163401215Y-88296200D02*
X163496453Y-88343819D01*
X163496453Y-88343819D02*
X163734548Y-88343819D01*
X163734548Y-88343819D02*
X163829786Y-88296200D01*
X163829786Y-88296200D02*
X163877405Y-88200961D01*
X163877405Y-88200961D02*
X163877405Y-88105723D01*
X163877405Y-88105723D02*
X163829786Y-88010485D01*
X163829786Y-88010485D02*
X163734548Y-87962866D01*
X163734548Y-87962866D02*
X163496453Y-87962866D01*
X163496453Y-87962866D02*
X163401215Y-87915247D01*
X162782167Y-88343819D02*
X162877405Y-88296200D01*
X162877405Y-88296200D02*
X162925024Y-88200961D01*
X162925024Y-88200961D02*
X162925024Y-87343819D01*
X162258357Y-88343819D02*
X162353595Y-88296200D01*
X162353595Y-88296200D02*
X162401214Y-88200961D01*
X162401214Y-88200961D02*
X162401214Y-87343819D01*
X161448833Y-88343819D02*
X161448833Y-87820009D01*
X161448833Y-87820009D02*
X161496452Y-87724771D01*
X161496452Y-87724771D02*
X161591690Y-87677152D01*
X161591690Y-87677152D02*
X161782166Y-87677152D01*
X161782166Y-87677152D02*
X161877404Y-87724771D01*
X161448833Y-88296200D02*
X161544071Y-88343819D01*
X161544071Y-88343819D02*
X161782166Y-88343819D01*
X161782166Y-88343819D02*
X161877404Y-88296200D01*
X161877404Y-88296200D02*
X161925023Y-88200961D01*
X161925023Y-88200961D02*
X161925023Y-88105723D01*
X161925023Y-88105723D02*
X161877404Y-88010485D01*
X161877404Y-88010485D02*
X161782166Y-87962866D01*
X161782166Y-87962866D02*
X161544071Y-87962866D01*
X161544071Y-87962866D02*
X161448833Y-87915247D01*
X161115499Y-87677152D02*
X160734547Y-87677152D01*
X160972642Y-87343819D02*
X160972642Y-88200961D01*
X160972642Y-88200961D02*
X160925023Y-88296200D01*
X160925023Y-88296200D02*
X160829785Y-88343819D01*
X160829785Y-88343819D02*
X160734547Y-88343819D01*
X160401213Y-88343819D02*
X160401213Y-87677152D01*
X160401213Y-87343819D02*
X160448832Y-87391438D01*
X160448832Y-87391438D02*
X160401213Y-87439057D01*
X160401213Y-87439057D02*
X160353594Y-87391438D01*
X160353594Y-87391438D02*
X160401213Y-87343819D01*
X160401213Y-87343819D02*
X160401213Y-87439057D01*
X159782166Y-88343819D02*
X159877404Y-88296200D01*
X159877404Y-88296200D02*
X159925023Y-88248580D01*
X159925023Y-88248580D02*
X159972642Y-88153342D01*
X159972642Y-88153342D02*
X159972642Y-87867628D01*
X159972642Y-87867628D02*
X159925023Y-87772390D01*
X159925023Y-87772390D02*
X159877404Y-87724771D01*
X159877404Y-87724771D02*
X159782166Y-87677152D01*
X159782166Y-87677152D02*
X159639309Y-87677152D01*
X159639309Y-87677152D02*
X159544071Y-87724771D01*
X159544071Y-87724771D02*
X159496452Y-87772390D01*
X159496452Y-87772390D02*
X159448833Y-87867628D01*
X159448833Y-87867628D02*
X159448833Y-88153342D01*
X159448833Y-88153342D02*
X159496452Y-88248580D01*
X159496452Y-88248580D02*
X159544071Y-88296200D01*
X159544071Y-88296200D02*
X159639309Y-88343819D01*
X159639309Y-88343819D02*
X159782166Y-88343819D01*
X159020261Y-87677152D02*
X159020261Y-88343819D01*
X159020261Y-87772390D02*
X158972642Y-87724771D01*
X158972642Y-87724771D02*
X158877404Y-87677152D01*
X158877404Y-87677152D02*
X158734547Y-87677152D01*
X158734547Y-87677152D02*
X158639309Y-87724771D01*
X158639309Y-87724771D02*
X158591690Y-87820009D01*
X158591690Y-87820009D02*
X158591690Y-88343819D01*
X158115499Y-88248580D02*
X158067880Y-88296200D01*
X158067880Y-88296200D02*
X158115499Y-88343819D01*
X158115499Y-88343819D02*
X158163118Y-88296200D01*
X158163118Y-88296200D02*
X158115499Y-88248580D01*
X158115499Y-88248580D02*
X158115499Y-88343819D01*
X189401220Y-89953819D02*
X189401220Y-88953819D01*
X189401220Y-88953819D02*
X188829792Y-89953819D01*
X188829792Y-89953819D02*
X188829792Y-88953819D01*
X188210744Y-89953819D02*
X188305982Y-89906200D01*
X188305982Y-89906200D02*
X188353601Y-89858580D01*
X188353601Y-89858580D02*
X188401220Y-89763342D01*
X188401220Y-89763342D02*
X188401220Y-89477628D01*
X188401220Y-89477628D02*
X188353601Y-89382390D01*
X188353601Y-89382390D02*
X188305982Y-89334771D01*
X188305982Y-89334771D02*
X188210744Y-89287152D01*
X188210744Y-89287152D02*
X188067887Y-89287152D01*
X188067887Y-89287152D02*
X187972649Y-89334771D01*
X187972649Y-89334771D02*
X187925030Y-89382390D01*
X187925030Y-89382390D02*
X187877411Y-89477628D01*
X187877411Y-89477628D02*
X187877411Y-89763342D01*
X187877411Y-89763342D02*
X187925030Y-89858580D01*
X187925030Y-89858580D02*
X187972649Y-89906200D01*
X187972649Y-89906200D02*
X188067887Y-89953819D01*
X188067887Y-89953819D02*
X188210744Y-89953819D01*
X187591696Y-89287152D02*
X187210744Y-89287152D01*
X187448839Y-88953819D02*
X187448839Y-89810961D01*
X187448839Y-89810961D02*
X187401220Y-89906200D01*
X187401220Y-89906200D02*
X187305982Y-89953819D01*
X187305982Y-89953819D02*
X187210744Y-89953819D01*
X186115505Y-89953819D02*
X186115505Y-89287152D01*
X186115505Y-89477628D02*
X186067886Y-89382390D01*
X186067886Y-89382390D02*
X186020267Y-89334771D01*
X186020267Y-89334771D02*
X185925029Y-89287152D01*
X185925029Y-89287152D02*
X185829791Y-89287152D01*
X185115505Y-89906200D02*
X185210743Y-89953819D01*
X185210743Y-89953819D02*
X185401219Y-89953819D01*
X185401219Y-89953819D02*
X185496457Y-89906200D01*
X185496457Y-89906200D02*
X185544076Y-89810961D01*
X185544076Y-89810961D02*
X185544076Y-89430009D01*
X185544076Y-89430009D02*
X185496457Y-89334771D01*
X185496457Y-89334771D02*
X185401219Y-89287152D01*
X185401219Y-89287152D02*
X185210743Y-89287152D01*
X185210743Y-89287152D02*
X185115505Y-89334771D01*
X185115505Y-89334771D02*
X185067886Y-89430009D01*
X185067886Y-89430009D02*
X185067886Y-89525247D01*
X185067886Y-89525247D02*
X185544076Y-89620485D01*
X184686933Y-89906200D02*
X184591695Y-89953819D01*
X184591695Y-89953819D02*
X184401219Y-89953819D01*
X184401219Y-89953819D02*
X184305981Y-89906200D01*
X184305981Y-89906200D02*
X184258362Y-89810961D01*
X184258362Y-89810961D02*
X184258362Y-89763342D01*
X184258362Y-89763342D02*
X184305981Y-89668104D01*
X184305981Y-89668104D02*
X184401219Y-89620485D01*
X184401219Y-89620485D02*
X184544076Y-89620485D01*
X184544076Y-89620485D02*
X184639314Y-89572866D01*
X184639314Y-89572866D02*
X184686933Y-89477628D01*
X184686933Y-89477628D02*
X184686933Y-89430009D01*
X184686933Y-89430009D02*
X184639314Y-89334771D01*
X184639314Y-89334771D02*
X184544076Y-89287152D01*
X184544076Y-89287152D02*
X184401219Y-89287152D01*
X184401219Y-89287152D02*
X184305981Y-89334771D01*
X183829790Y-89287152D02*
X183829790Y-90287152D01*
X183829790Y-89334771D02*
X183734552Y-89287152D01*
X183734552Y-89287152D02*
X183544076Y-89287152D01*
X183544076Y-89287152D02*
X183448838Y-89334771D01*
X183448838Y-89334771D02*
X183401219Y-89382390D01*
X183401219Y-89382390D02*
X183353600Y-89477628D01*
X183353600Y-89477628D02*
X183353600Y-89763342D01*
X183353600Y-89763342D02*
X183401219Y-89858580D01*
X183401219Y-89858580D02*
X183448838Y-89906200D01*
X183448838Y-89906200D02*
X183544076Y-89953819D01*
X183544076Y-89953819D02*
X183734552Y-89953819D01*
X183734552Y-89953819D02*
X183829790Y-89906200D01*
X182782171Y-89953819D02*
X182877409Y-89906200D01*
X182877409Y-89906200D02*
X182925028Y-89858580D01*
X182925028Y-89858580D02*
X182972647Y-89763342D01*
X182972647Y-89763342D02*
X182972647Y-89477628D01*
X182972647Y-89477628D02*
X182925028Y-89382390D01*
X182925028Y-89382390D02*
X182877409Y-89334771D01*
X182877409Y-89334771D02*
X182782171Y-89287152D01*
X182782171Y-89287152D02*
X182639314Y-89287152D01*
X182639314Y-89287152D02*
X182544076Y-89334771D01*
X182544076Y-89334771D02*
X182496457Y-89382390D01*
X182496457Y-89382390D02*
X182448838Y-89477628D01*
X182448838Y-89477628D02*
X182448838Y-89763342D01*
X182448838Y-89763342D02*
X182496457Y-89858580D01*
X182496457Y-89858580D02*
X182544076Y-89906200D01*
X182544076Y-89906200D02*
X182639314Y-89953819D01*
X182639314Y-89953819D02*
X182782171Y-89953819D01*
X182020266Y-89287152D02*
X182020266Y-89953819D01*
X182020266Y-89382390D02*
X181972647Y-89334771D01*
X181972647Y-89334771D02*
X181877409Y-89287152D01*
X181877409Y-89287152D02*
X181734552Y-89287152D01*
X181734552Y-89287152D02*
X181639314Y-89334771D01*
X181639314Y-89334771D02*
X181591695Y-89430009D01*
X181591695Y-89430009D02*
X181591695Y-89953819D01*
X181163123Y-89906200D02*
X181067885Y-89953819D01*
X181067885Y-89953819D02*
X180877409Y-89953819D01*
X180877409Y-89953819D02*
X180782171Y-89906200D01*
X180782171Y-89906200D02*
X180734552Y-89810961D01*
X180734552Y-89810961D02*
X180734552Y-89763342D01*
X180734552Y-89763342D02*
X180782171Y-89668104D01*
X180782171Y-89668104D02*
X180877409Y-89620485D01*
X180877409Y-89620485D02*
X181020266Y-89620485D01*
X181020266Y-89620485D02*
X181115504Y-89572866D01*
X181115504Y-89572866D02*
X181163123Y-89477628D01*
X181163123Y-89477628D02*
X181163123Y-89430009D01*
X181163123Y-89430009D02*
X181115504Y-89334771D01*
X181115504Y-89334771D02*
X181020266Y-89287152D01*
X181020266Y-89287152D02*
X180877409Y-89287152D01*
X180877409Y-89287152D02*
X180782171Y-89334771D01*
X180305980Y-89953819D02*
X180305980Y-89287152D01*
X180305980Y-88953819D02*
X180353599Y-89001438D01*
X180353599Y-89001438D02*
X180305980Y-89049057D01*
X180305980Y-89049057D02*
X180258361Y-89001438D01*
X180258361Y-89001438D02*
X180305980Y-88953819D01*
X180305980Y-88953819D02*
X180305980Y-89049057D01*
X179829790Y-89953819D02*
X179829790Y-88953819D01*
X179829790Y-89334771D02*
X179734552Y-89287152D01*
X179734552Y-89287152D02*
X179544076Y-89287152D01*
X179544076Y-89287152D02*
X179448838Y-89334771D01*
X179448838Y-89334771D02*
X179401219Y-89382390D01*
X179401219Y-89382390D02*
X179353600Y-89477628D01*
X179353600Y-89477628D02*
X179353600Y-89763342D01*
X179353600Y-89763342D02*
X179401219Y-89858580D01*
X179401219Y-89858580D02*
X179448838Y-89906200D01*
X179448838Y-89906200D02*
X179544076Y-89953819D01*
X179544076Y-89953819D02*
X179734552Y-89953819D01*
X179734552Y-89953819D02*
X179829790Y-89906200D01*
X178782171Y-89953819D02*
X178877409Y-89906200D01*
X178877409Y-89906200D02*
X178925028Y-89810961D01*
X178925028Y-89810961D02*
X178925028Y-88953819D01*
X178020266Y-89906200D02*
X178115504Y-89953819D01*
X178115504Y-89953819D02*
X178305980Y-89953819D01*
X178305980Y-89953819D02*
X178401218Y-89906200D01*
X178401218Y-89906200D02*
X178448837Y-89810961D01*
X178448837Y-89810961D02*
X178448837Y-89430009D01*
X178448837Y-89430009D02*
X178401218Y-89334771D01*
X178401218Y-89334771D02*
X178305980Y-89287152D01*
X178305980Y-89287152D02*
X178115504Y-89287152D01*
X178115504Y-89287152D02*
X178020266Y-89334771D01*
X178020266Y-89334771D02*
X177972647Y-89430009D01*
X177972647Y-89430009D02*
X177972647Y-89525247D01*
X177972647Y-89525247D02*
X178448837Y-89620485D01*
X176925027Y-89287152D02*
X176544075Y-89287152D01*
X176782170Y-89953819D02*
X176782170Y-89096676D01*
X176782170Y-89096676D02*
X176734551Y-89001438D01*
X176734551Y-89001438D02*
X176639313Y-88953819D01*
X176639313Y-88953819D02*
X176544075Y-88953819D01*
X176067884Y-89953819D02*
X176163122Y-89906200D01*
X176163122Y-89906200D02*
X176210741Y-89858580D01*
X176210741Y-89858580D02*
X176258360Y-89763342D01*
X176258360Y-89763342D02*
X176258360Y-89477628D01*
X176258360Y-89477628D02*
X176210741Y-89382390D01*
X176210741Y-89382390D02*
X176163122Y-89334771D01*
X176163122Y-89334771D02*
X176067884Y-89287152D01*
X176067884Y-89287152D02*
X175925027Y-89287152D01*
X175925027Y-89287152D02*
X175829789Y-89334771D01*
X175829789Y-89334771D02*
X175782170Y-89382390D01*
X175782170Y-89382390D02*
X175734551Y-89477628D01*
X175734551Y-89477628D02*
X175734551Y-89763342D01*
X175734551Y-89763342D02*
X175782170Y-89858580D01*
X175782170Y-89858580D02*
X175829789Y-89906200D01*
X175829789Y-89906200D02*
X175925027Y-89953819D01*
X175925027Y-89953819D02*
X176067884Y-89953819D01*
X175305979Y-89953819D02*
X175305979Y-89287152D01*
X175305979Y-89477628D02*
X175258360Y-89382390D01*
X175258360Y-89382390D02*
X175210741Y-89334771D01*
X175210741Y-89334771D02*
X175115503Y-89287152D01*
X175115503Y-89287152D02*
X175020265Y-89287152D01*
X173925026Y-89953819D02*
X173925026Y-89287152D01*
X173925026Y-88953819D02*
X173972645Y-89001438D01*
X173972645Y-89001438D02*
X173925026Y-89049057D01*
X173925026Y-89049057D02*
X173877407Y-89001438D01*
X173877407Y-89001438D02*
X173925026Y-88953819D01*
X173925026Y-88953819D02*
X173925026Y-89049057D01*
X173448836Y-89953819D02*
X173448836Y-89287152D01*
X173448836Y-89382390D02*
X173401217Y-89334771D01*
X173401217Y-89334771D02*
X173305979Y-89287152D01*
X173305979Y-89287152D02*
X173163122Y-89287152D01*
X173163122Y-89287152D02*
X173067884Y-89334771D01*
X173067884Y-89334771D02*
X173020265Y-89430009D01*
X173020265Y-89430009D02*
X173020265Y-89953819D01*
X173020265Y-89430009D02*
X172972646Y-89334771D01*
X172972646Y-89334771D02*
X172877408Y-89287152D01*
X172877408Y-89287152D02*
X172734551Y-89287152D01*
X172734551Y-89287152D02*
X172639312Y-89334771D01*
X172639312Y-89334771D02*
X172591693Y-89430009D01*
X172591693Y-89430009D02*
X172591693Y-89953819D01*
X172115503Y-89287152D02*
X172115503Y-90287152D01*
X172115503Y-89334771D02*
X172020265Y-89287152D01*
X172020265Y-89287152D02*
X171829789Y-89287152D01*
X171829789Y-89287152D02*
X171734551Y-89334771D01*
X171734551Y-89334771D02*
X171686932Y-89382390D01*
X171686932Y-89382390D02*
X171639313Y-89477628D01*
X171639313Y-89477628D02*
X171639313Y-89763342D01*
X171639313Y-89763342D02*
X171686932Y-89858580D01*
X171686932Y-89858580D02*
X171734551Y-89906200D01*
X171734551Y-89906200D02*
X171829789Y-89953819D01*
X171829789Y-89953819D02*
X172020265Y-89953819D01*
X172020265Y-89953819D02*
X172115503Y-89906200D01*
X171210741Y-89953819D02*
X171210741Y-89287152D01*
X171210741Y-89477628D02*
X171163122Y-89382390D01*
X171163122Y-89382390D02*
X171115503Y-89334771D01*
X171115503Y-89334771D02*
X171020265Y-89287152D01*
X171020265Y-89287152D02*
X170925027Y-89287152D01*
X170448836Y-89953819D02*
X170544074Y-89906200D01*
X170544074Y-89906200D02*
X170591693Y-89858580D01*
X170591693Y-89858580D02*
X170639312Y-89763342D01*
X170639312Y-89763342D02*
X170639312Y-89477628D01*
X170639312Y-89477628D02*
X170591693Y-89382390D01*
X170591693Y-89382390D02*
X170544074Y-89334771D01*
X170544074Y-89334771D02*
X170448836Y-89287152D01*
X170448836Y-89287152D02*
X170305979Y-89287152D01*
X170305979Y-89287152D02*
X170210741Y-89334771D01*
X170210741Y-89334771D02*
X170163122Y-89382390D01*
X170163122Y-89382390D02*
X170115503Y-89477628D01*
X170115503Y-89477628D02*
X170115503Y-89763342D01*
X170115503Y-89763342D02*
X170163122Y-89858580D01*
X170163122Y-89858580D02*
X170210741Y-89906200D01*
X170210741Y-89906200D02*
X170305979Y-89953819D01*
X170305979Y-89953819D02*
X170448836Y-89953819D01*
X169686931Y-89287152D02*
X169686931Y-90287152D01*
X169686931Y-89334771D02*
X169591693Y-89287152D01*
X169591693Y-89287152D02*
X169401217Y-89287152D01*
X169401217Y-89287152D02*
X169305979Y-89334771D01*
X169305979Y-89334771D02*
X169258360Y-89382390D01*
X169258360Y-89382390D02*
X169210741Y-89477628D01*
X169210741Y-89477628D02*
X169210741Y-89763342D01*
X169210741Y-89763342D02*
X169258360Y-89858580D01*
X169258360Y-89858580D02*
X169305979Y-89906200D01*
X169305979Y-89906200D02*
X169401217Y-89953819D01*
X169401217Y-89953819D02*
X169591693Y-89953819D01*
X169591693Y-89953819D02*
X169686931Y-89906200D01*
X168401217Y-89906200D02*
X168496455Y-89953819D01*
X168496455Y-89953819D02*
X168686931Y-89953819D01*
X168686931Y-89953819D02*
X168782169Y-89906200D01*
X168782169Y-89906200D02*
X168829788Y-89810961D01*
X168829788Y-89810961D02*
X168829788Y-89430009D01*
X168829788Y-89430009D02*
X168782169Y-89334771D01*
X168782169Y-89334771D02*
X168686931Y-89287152D01*
X168686931Y-89287152D02*
X168496455Y-89287152D01*
X168496455Y-89287152D02*
X168401217Y-89334771D01*
X168401217Y-89334771D02*
X168353598Y-89430009D01*
X168353598Y-89430009D02*
X168353598Y-89525247D01*
X168353598Y-89525247D02*
X168829788Y-89620485D01*
X167925026Y-89953819D02*
X167925026Y-89287152D01*
X167925026Y-89477628D02*
X167877407Y-89382390D01*
X167877407Y-89382390D02*
X167829788Y-89334771D01*
X167829788Y-89334771D02*
X167734550Y-89287152D01*
X167734550Y-89287152D02*
X167639312Y-89287152D01*
X166544073Y-89953819D02*
X166544073Y-89287152D01*
X166544073Y-88953819D02*
X166591692Y-89001438D01*
X166591692Y-89001438D02*
X166544073Y-89049057D01*
X166544073Y-89049057D02*
X166496454Y-89001438D01*
X166496454Y-89001438D02*
X166544073Y-88953819D01*
X166544073Y-88953819D02*
X166544073Y-89049057D01*
X166067883Y-89287152D02*
X166067883Y-89953819D01*
X166067883Y-89382390D02*
X166020264Y-89334771D01*
X166020264Y-89334771D02*
X165925026Y-89287152D01*
X165925026Y-89287152D02*
X165782169Y-89287152D01*
X165782169Y-89287152D02*
X165686931Y-89334771D01*
X165686931Y-89334771D02*
X165639312Y-89430009D01*
X165639312Y-89430009D02*
X165639312Y-89953819D01*
X165210740Y-89906200D02*
X165115502Y-89953819D01*
X165115502Y-89953819D02*
X164925026Y-89953819D01*
X164925026Y-89953819D02*
X164829788Y-89906200D01*
X164829788Y-89906200D02*
X164782169Y-89810961D01*
X164782169Y-89810961D02*
X164782169Y-89763342D01*
X164782169Y-89763342D02*
X164829788Y-89668104D01*
X164829788Y-89668104D02*
X164925026Y-89620485D01*
X164925026Y-89620485D02*
X165067883Y-89620485D01*
X165067883Y-89620485D02*
X165163121Y-89572866D01*
X165163121Y-89572866D02*
X165210740Y-89477628D01*
X165210740Y-89477628D02*
X165210740Y-89430009D01*
X165210740Y-89430009D02*
X165163121Y-89334771D01*
X165163121Y-89334771D02*
X165067883Y-89287152D01*
X165067883Y-89287152D02*
X164925026Y-89287152D01*
X164925026Y-89287152D02*
X164829788Y-89334771D01*
X164496454Y-89287152D02*
X164115502Y-89287152D01*
X164353597Y-88953819D02*
X164353597Y-89810961D01*
X164353597Y-89810961D02*
X164305978Y-89906200D01*
X164305978Y-89906200D02*
X164210740Y-89953819D01*
X164210740Y-89953819D02*
X164115502Y-89953819D01*
X163353597Y-89953819D02*
X163353597Y-89430009D01*
X163353597Y-89430009D02*
X163401216Y-89334771D01*
X163401216Y-89334771D02*
X163496454Y-89287152D01*
X163496454Y-89287152D02*
X163686930Y-89287152D01*
X163686930Y-89287152D02*
X163782168Y-89334771D01*
X163353597Y-89906200D02*
X163448835Y-89953819D01*
X163448835Y-89953819D02*
X163686930Y-89953819D01*
X163686930Y-89953819D02*
X163782168Y-89906200D01*
X163782168Y-89906200D02*
X163829787Y-89810961D01*
X163829787Y-89810961D02*
X163829787Y-89715723D01*
X163829787Y-89715723D02*
X163782168Y-89620485D01*
X163782168Y-89620485D02*
X163686930Y-89572866D01*
X163686930Y-89572866D02*
X163448835Y-89572866D01*
X163448835Y-89572866D02*
X163353597Y-89525247D01*
X162734549Y-89953819D02*
X162829787Y-89906200D01*
X162829787Y-89906200D02*
X162877406Y-89810961D01*
X162877406Y-89810961D02*
X162877406Y-88953819D01*
X162210739Y-89953819D02*
X162305977Y-89906200D01*
X162305977Y-89906200D02*
X162353596Y-89810961D01*
X162353596Y-89810961D02*
X162353596Y-88953819D01*
X161401215Y-89953819D02*
X161401215Y-89430009D01*
X161401215Y-89430009D02*
X161448834Y-89334771D01*
X161448834Y-89334771D02*
X161544072Y-89287152D01*
X161544072Y-89287152D02*
X161734548Y-89287152D01*
X161734548Y-89287152D02*
X161829786Y-89334771D01*
X161401215Y-89906200D02*
X161496453Y-89953819D01*
X161496453Y-89953819D02*
X161734548Y-89953819D01*
X161734548Y-89953819D02*
X161829786Y-89906200D01*
X161829786Y-89906200D02*
X161877405Y-89810961D01*
X161877405Y-89810961D02*
X161877405Y-89715723D01*
X161877405Y-89715723D02*
X161829786Y-89620485D01*
X161829786Y-89620485D02*
X161734548Y-89572866D01*
X161734548Y-89572866D02*
X161496453Y-89572866D01*
X161496453Y-89572866D02*
X161401215Y-89525247D01*
X161067881Y-89287152D02*
X160686929Y-89287152D01*
X160925024Y-88953819D02*
X160925024Y-89810961D01*
X160925024Y-89810961D02*
X160877405Y-89906200D01*
X160877405Y-89906200D02*
X160782167Y-89953819D01*
X160782167Y-89953819D02*
X160686929Y-89953819D01*
X160353595Y-89953819D02*
X160353595Y-89287152D01*
X160353595Y-88953819D02*
X160401214Y-89001438D01*
X160401214Y-89001438D02*
X160353595Y-89049057D01*
X160353595Y-89049057D02*
X160305976Y-89001438D01*
X160305976Y-89001438D02*
X160353595Y-88953819D01*
X160353595Y-88953819D02*
X160353595Y-89049057D01*
X159734548Y-89953819D02*
X159829786Y-89906200D01*
X159829786Y-89906200D02*
X159877405Y-89858580D01*
X159877405Y-89858580D02*
X159925024Y-89763342D01*
X159925024Y-89763342D02*
X159925024Y-89477628D01*
X159925024Y-89477628D02*
X159877405Y-89382390D01*
X159877405Y-89382390D02*
X159829786Y-89334771D01*
X159829786Y-89334771D02*
X159734548Y-89287152D01*
X159734548Y-89287152D02*
X159591691Y-89287152D01*
X159591691Y-89287152D02*
X159496453Y-89334771D01*
X159496453Y-89334771D02*
X159448834Y-89382390D01*
X159448834Y-89382390D02*
X159401215Y-89477628D01*
X159401215Y-89477628D02*
X159401215Y-89763342D01*
X159401215Y-89763342D02*
X159448834Y-89858580D01*
X159448834Y-89858580D02*
X159496453Y-89906200D01*
X159496453Y-89906200D02*
X159591691Y-89953819D01*
X159591691Y-89953819D02*
X159734548Y-89953819D01*
X158972643Y-89287152D02*
X158972643Y-89953819D01*
X158972643Y-89382390D02*
X158925024Y-89334771D01*
X158925024Y-89334771D02*
X158829786Y-89287152D01*
X158829786Y-89287152D02*
X158686929Y-89287152D01*
X158686929Y-89287152D02*
X158591691Y-89334771D01*
X158591691Y-89334771D02*
X158544072Y-89430009D01*
X158544072Y-89430009D02*
X158544072Y-89953819D01*
X158067881Y-89858580D02*
X158020262Y-89906200D01*
X158020262Y-89906200D02*
X158067881Y-89953819D01*
X158067881Y-89953819D02*
X158115500Y-89906200D01*
X158115500Y-89906200D02*
X158067881Y-89858580D01*
X158067881Y-89858580D02*
X158067881Y-89953819D01*
X189401220Y-91563819D02*
X189401220Y-90563819D01*
X189401220Y-90563819D02*
X189020268Y-90563819D01*
X189020268Y-90563819D02*
X188925030Y-90611438D01*
X188925030Y-90611438D02*
X188877411Y-90659057D01*
X188877411Y-90659057D02*
X188829792Y-90754295D01*
X188829792Y-90754295D02*
X188829792Y-90897152D01*
X188829792Y-90897152D02*
X188877411Y-90992390D01*
X188877411Y-90992390D02*
X188925030Y-91040009D01*
X188925030Y-91040009D02*
X189020268Y-91087628D01*
X189020268Y-91087628D02*
X189401220Y-91087628D01*
X188258363Y-91563819D02*
X188353601Y-91516200D01*
X188353601Y-91516200D02*
X188401220Y-91420961D01*
X188401220Y-91420961D02*
X188401220Y-90563819D01*
X187496458Y-91516200D02*
X187591696Y-91563819D01*
X187591696Y-91563819D02*
X187782172Y-91563819D01*
X187782172Y-91563819D02*
X187877410Y-91516200D01*
X187877410Y-91516200D02*
X187925029Y-91420961D01*
X187925029Y-91420961D02*
X187925029Y-91040009D01*
X187925029Y-91040009D02*
X187877410Y-90944771D01*
X187877410Y-90944771D02*
X187782172Y-90897152D01*
X187782172Y-90897152D02*
X187591696Y-90897152D01*
X187591696Y-90897152D02*
X187496458Y-90944771D01*
X187496458Y-90944771D02*
X187448839Y-91040009D01*
X187448839Y-91040009D02*
X187448839Y-91135247D01*
X187448839Y-91135247D02*
X187925029Y-91230485D01*
X186591696Y-91563819D02*
X186591696Y-91040009D01*
X186591696Y-91040009D02*
X186639315Y-90944771D01*
X186639315Y-90944771D02*
X186734553Y-90897152D01*
X186734553Y-90897152D02*
X186925029Y-90897152D01*
X186925029Y-90897152D02*
X187020267Y-90944771D01*
X186591696Y-91516200D02*
X186686934Y-91563819D01*
X186686934Y-91563819D02*
X186925029Y-91563819D01*
X186925029Y-91563819D02*
X187020267Y-91516200D01*
X187020267Y-91516200D02*
X187067886Y-91420961D01*
X187067886Y-91420961D02*
X187067886Y-91325723D01*
X187067886Y-91325723D02*
X187020267Y-91230485D01*
X187020267Y-91230485D02*
X186925029Y-91182866D01*
X186925029Y-91182866D02*
X186686934Y-91182866D01*
X186686934Y-91182866D02*
X186591696Y-91135247D01*
X186163124Y-91516200D02*
X186067886Y-91563819D01*
X186067886Y-91563819D02*
X185877410Y-91563819D01*
X185877410Y-91563819D02*
X185782172Y-91516200D01*
X185782172Y-91516200D02*
X185734553Y-91420961D01*
X185734553Y-91420961D02*
X185734553Y-91373342D01*
X185734553Y-91373342D02*
X185782172Y-91278104D01*
X185782172Y-91278104D02*
X185877410Y-91230485D01*
X185877410Y-91230485D02*
X186020267Y-91230485D01*
X186020267Y-91230485D02*
X186115505Y-91182866D01*
X186115505Y-91182866D02*
X186163124Y-91087628D01*
X186163124Y-91087628D02*
X186163124Y-91040009D01*
X186163124Y-91040009D02*
X186115505Y-90944771D01*
X186115505Y-90944771D02*
X186020267Y-90897152D01*
X186020267Y-90897152D02*
X185877410Y-90897152D01*
X185877410Y-90897152D02*
X185782172Y-90944771D01*
X184925029Y-91516200D02*
X185020267Y-91563819D01*
X185020267Y-91563819D02*
X185210743Y-91563819D01*
X185210743Y-91563819D02*
X185305981Y-91516200D01*
X185305981Y-91516200D02*
X185353600Y-91420961D01*
X185353600Y-91420961D02*
X185353600Y-91040009D01*
X185353600Y-91040009D02*
X185305981Y-90944771D01*
X185305981Y-90944771D02*
X185210743Y-90897152D01*
X185210743Y-90897152D02*
X185020267Y-90897152D01*
X185020267Y-90897152D02*
X184925029Y-90944771D01*
X184925029Y-90944771D02*
X184877410Y-91040009D01*
X184877410Y-91040009D02*
X184877410Y-91135247D01*
X184877410Y-91135247D02*
X185353600Y-91230485D01*
X183686933Y-91563819D02*
X183686933Y-90897152D01*
X183686933Y-91087628D02*
X183639314Y-90992390D01*
X183639314Y-90992390D02*
X183591695Y-90944771D01*
X183591695Y-90944771D02*
X183496457Y-90897152D01*
X183496457Y-90897152D02*
X183401219Y-90897152D01*
X182686933Y-91516200D02*
X182782171Y-91563819D01*
X182782171Y-91563819D02*
X182972647Y-91563819D01*
X182972647Y-91563819D02*
X183067885Y-91516200D01*
X183067885Y-91516200D02*
X183115504Y-91420961D01*
X183115504Y-91420961D02*
X183115504Y-91040009D01*
X183115504Y-91040009D02*
X183067885Y-90944771D01*
X183067885Y-90944771D02*
X182972647Y-90897152D01*
X182972647Y-90897152D02*
X182782171Y-90897152D01*
X182782171Y-90897152D02*
X182686933Y-90944771D01*
X182686933Y-90944771D02*
X182639314Y-91040009D01*
X182639314Y-91040009D02*
X182639314Y-91135247D01*
X182639314Y-91135247D02*
X183115504Y-91230485D01*
X181782171Y-91563819D02*
X181782171Y-91040009D01*
X181782171Y-91040009D02*
X181829790Y-90944771D01*
X181829790Y-90944771D02*
X181925028Y-90897152D01*
X181925028Y-90897152D02*
X182115504Y-90897152D01*
X182115504Y-90897152D02*
X182210742Y-90944771D01*
X181782171Y-91516200D02*
X181877409Y-91563819D01*
X181877409Y-91563819D02*
X182115504Y-91563819D01*
X182115504Y-91563819D02*
X182210742Y-91516200D01*
X182210742Y-91516200D02*
X182258361Y-91420961D01*
X182258361Y-91420961D02*
X182258361Y-91325723D01*
X182258361Y-91325723D02*
X182210742Y-91230485D01*
X182210742Y-91230485D02*
X182115504Y-91182866D01*
X182115504Y-91182866D02*
X181877409Y-91182866D01*
X181877409Y-91182866D02*
X181782171Y-91135247D01*
X180877409Y-91563819D02*
X180877409Y-90563819D01*
X180877409Y-91516200D02*
X180972647Y-91563819D01*
X180972647Y-91563819D02*
X181163123Y-91563819D01*
X181163123Y-91563819D02*
X181258361Y-91516200D01*
X181258361Y-91516200D02*
X181305980Y-91468580D01*
X181305980Y-91468580D02*
X181353599Y-91373342D01*
X181353599Y-91373342D02*
X181353599Y-91087628D01*
X181353599Y-91087628D02*
X181305980Y-90992390D01*
X181305980Y-90992390D02*
X181258361Y-90944771D01*
X181258361Y-90944771D02*
X181163123Y-90897152D01*
X181163123Y-90897152D02*
X180972647Y-90897152D01*
X180972647Y-90897152D02*
X180877409Y-90944771D01*
X179210742Y-91563819D02*
X179210742Y-91040009D01*
X179210742Y-91040009D02*
X179258361Y-90944771D01*
X179258361Y-90944771D02*
X179353599Y-90897152D01*
X179353599Y-90897152D02*
X179544075Y-90897152D01*
X179544075Y-90897152D02*
X179639313Y-90944771D01*
X179210742Y-91516200D02*
X179305980Y-91563819D01*
X179305980Y-91563819D02*
X179544075Y-91563819D01*
X179544075Y-91563819D02*
X179639313Y-91516200D01*
X179639313Y-91516200D02*
X179686932Y-91420961D01*
X179686932Y-91420961D02*
X179686932Y-91325723D01*
X179686932Y-91325723D02*
X179639313Y-91230485D01*
X179639313Y-91230485D02*
X179544075Y-91182866D01*
X179544075Y-91182866D02*
X179305980Y-91182866D01*
X179305980Y-91182866D02*
X179210742Y-91135247D01*
X178591694Y-91563819D02*
X178686932Y-91516200D01*
X178686932Y-91516200D02*
X178734551Y-91420961D01*
X178734551Y-91420961D02*
X178734551Y-90563819D01*
X178067884Y-91563819D02*
X178163122Y-91516200D01*
X178163122Y-91516200D02*
X178210741Y-91420961D01*
X178210741Y-91420961D02*
X178210741Y-90563819D01*
X176496455Y-91563819D02*
X176496455Y-90563819D01*
X176496455Y-91516200D02*
X176591693Y-91563819D01*
X176591693Y-91563819D02*
X176782169Y-91563819D01*
X176782169Y-91563819D02*
X176877407Y-91516200D01*
X176877407Y-91516200D02*
X176925026Y-91468580D01*
X176925026Y-91468580D02*
X176972645Y-91373342D01*
X176972645Y-91373342D02*
X176972645Y-91087628D01*
X176972645Y-91087628D02*
X176925026Y-90992390D01*
X176925026Y-90992390D02*
X176877407Y-90944771D01*
X176877407Y-90944771D02*
X176782169Y-90897152D01*
X176782169Y-90897152D02*
X176591693Y-90897152D01*
X176591693Y-90897152D02*
X176496455Y-90944771D01*
X175877407Y-91563819D02*
X175972645Y-91516200D01*
X175972645Y-91516200D02*
X176020264Y-91468580D01*
X176020264Y-91468580D02*
X176067883Y-91373342D01*
X176067883Y-91373342D02*
X176067883Y-91087628D01*
X176067883Y-91087628D02*
X176020264Y-90992390D01*
X176020264Y-90992390D02*
X175972645Y-90944771D01*
X175972645Y-90944771D02*
X175877407Y-90897152D01*
X175877407Y-90897152D02*
X175734550Y-90897152D01*
X175734550Y-90897152D02*
X175639312Y-90944771D01*
X175639312Y-90944771D02*
X175591693Y-90992390D01*
X175591693Y-90992390D02*
X175544074Y-91087628D01*
X175544074Y-91087628D02*
X175544074Y-91373342D01*
X175544074Y-91373342D02*
X175591693Y-91468580D01*
X175591693Y-91468580D02*
X175639312Y-91516200D01*
X175639312Y-91516200D02*
X175734550Y-91563819D01*
X175734550Y-91563819D02*
X175877407Y-91563819D01*
X174686931Y-91516200D02*
X174782169Y-91563819D01*
X174782169Y-91563819D02*
X174972645Y-91563819D01*
X174972645Y-91563819D02*
X175067883Y-91516200D01*
X175067883Y-91516200D02*
X175115502Y-91468580D01*
X175115502Y-91468580D02*
X175163121Y-91373342D01*
X175163121Y-91373342D02*
X175163121Y-91087628D01*
X175163121Y-91087628D02*
X175115502Y-90992390D01*
X175115502Y-90992390D02*
X175067883Y-90944771D01*
X175067883Y-90944771D02*
X174972645Y-90897152D01*
X174972645Y-90897152D02*
X174782169Y-90897152D01*
X174782169Y-90897152D02*
X174686931Y-90944771D01*
X173829788Y-90897152D02*
X173829788Y-91563819D01*
X174258359Y-90897152D02*
X174258359Y-91420961D01*
X174258359Y-91420961D02*
X174210740Y-91516200D01*
X174210740Y-91516200D02*
X174115502Y-91563819D01*
X174115502Y-91563819D02*
X173972645Y-91563819D01*
X173972645Y-91563819D02*
X173877407Y-91516200D01*
X173877407Y-91516200D02*
X173829788Y-91468580D01*
X173353597Y-91563819D02*
X173353597Y-90897152D01*
X173353597Y-90992390D02*
X173305978Y-90944771D01*
X173305978Y-90944771D02*
X173210740Y-90897152D01*
X173210740Y-90897152D02*
X173067883Y-90897152D01*
X173067883Y-90897152D02*
X172972645Y-90944771D01*
X172972645Y-90944771D02*
X172925026Y-91040009D01*
X172925026Y-91040009D02*
X172925026Y-91563819D01*
X172925026Y-91040009D02*
X172877407Y-90944771D01*
X172877407Y-90944771D02*
X172782169Y-90897152D01*
X172782169Y-90897152D02*
X172639312Y-90897152D01*
X172639312Y-90897152D02*
X172544073Y-90944771D01*
X172544073Y-90944771D02*
X172496454Y-91040009D01*
X172496454Y-91040009D02*
X172496454Y-91563819D01*
X171639312Y-91516200D02*
X171734550Y-91563819D01*
X171734550Y-91563819D02*
X171925026Y-91563819D01*
X171925026Y-91563819D02*
X172020264Y-91516200D01*
X172020264Y-91516200D02*
X172067883Y-91420961D01*
X172067883Y-91420961D02*
X172067883Y-91040009D01*
X172067883Y-91040009D02*
X172020264Y-90944771D01*
X172020264Y-90944771D02*
X171925026Y-90897152D01*
X171925026Y-90897152D02*
X171734550Y-90897152D01*
X171734550Y-90897152D02*
X171639312Y-90944771D01*
X171639312Y-90944771D02*
X171591693Y-91040009D01*
X171591693Y-91040009D02*
X171591693Y-91135247D01*
X171591693Y-91135247D02*
X172067883Y-91230485D01*
X171163121Y-90897152D02*
X171163121Y-91563819D01*
X171163121Y-90992390D02*
X171115502Y-90944771D01*
X171115502Y-90944771D02*
X171020264Y-90897152D01*
X171020264Y-90897152D02*
X170877407Y-90897152D01*
X170877407Y-90897152D02*
X170782169Y-90944771D01*
X170782169Y-90944771D02*
X170734550Y-91040009D01*
X170734550Y-91040009D02*
X170734550Y-91563819D01*
X170401216Y-90897152D02*
X170020264Y-90897152D01*
X170258359Y-90563819D02*
X170258359Y-91420961D01*
X170258359Y-91420961D02*
X170210740Y-91516200D01*
X170210740Y-91516200D02*
X170115502Y-91563819D01*
X170115502Y-91563819D02*
X170020264Y-91563819D01*
X169258359Y-91563819D02*
X169258359Y-91040009D01*
X169258359Y-91040009D02*
X169305978Y-90944771D01*
X169305978Y-90944771D02*
X169401216Y-90897152D01*
X169401216Y-90897152D02*
X169591692Y-90897152D01*
X169591692Y-90897152D02*
X169686930Y-90944771D01*
X169258359Y-91516200D02*
X169353597Y-91563819D01*
X169353597Y-91563819D02*
X169591692Y-91563819D01*
X169591692Y-91563819D02*
X169686930Y-91516200D01*
X169686930Y-91516200D02*
X169734549Y-91420961D01*
X169734549Y-91420961D02*
X169734549Y-91325723D01*
X169734549Y-91325723D02*
X169686930Y-91230485D01*
X169686930Y-91230485D02*
X169591692Y-91182866D01*
X169591692Y-91182866D02*
X169353597Y-91182866D01*
X169353597Y-91182866D02*
X169258359Y-91135247D01*
X168925025Y-90897152D02*
X168544073Y-90897152D01*
X168782168Y-90563819D02*
X168782168Y-91420961D01*
X168782168Y-91420961D02*
X168734549Y-91516200D01*
X168734549Y-91516200D02*
X168639311Y-91563819D01*
X168639311Y-91563819D02*
X168544073Y-91563819D01*
X168210739Y-91563819D02*
X168210739Y-90897152D01*
X168210739Y-90563819D02*
X168258358Y-90611438D01*
X168258358Y-90611438D02*
X168210739Y-90659057D01*
X168210739Y-90659057D02*
X168163120Y-90611438D01*
X168163120Y-90611438D02*
X168210739Y-90563819D01*
X168210739Y-90563819D02*
X168210739Y-90659057D01*
X167591692Y-91563819D02*
X167686930Y-91516200D01*
X167686930Y-91516200D02*
X167734549Y-91468580D01*
X167734549Y-91468580D02*
X167782168Y-91373342D01*
X167782168Y-91373342D02*
X167782168Y-91087628D01*
X167782168Y-91087628D02*
X167734549Y-90992390D01*
X167734549Y-90992390D02*
X167686930Y-90944771D01*
X167686930Y-90944771D02*
X167591692Y-90897152D01*
X167591692Y-90897152D02*
X167448835Y-90897152D01*
X167448835Y-90897152D02*
X167353597Y-90944771D01*
X167353597Y-90944771D02*
X167305978Y-90992390D01*
X167305978Y-90992390D02*
X167258359Y-91087628D01*
X167258359Y-91087628D02*
X167258359Y-91373342D01*
X167258359Y-91373342D02*
X167305978Y-91468580D01*
X167305978Y-91468580D02*
X167353597Y-91516200D01*
X167353597Y-91516200D02*
X167448835Y-91563819D01*
X167448835Y-91563819D02*
X167591692Y-91563819D01*
X166829787Y-90897152D02*
X166829787Y-91563819D01*
X166829787Y-90992390D02*
X166782168Y-90944771D01*
X166782168Y-90944771D02*
X166686930Y-90897152D01*
X166686930Y-90897152D02*
X166544073Y-90897152D01*
X166544073Y-90897152D02*
X166448835Y-90944771D01*
X166448835Y-90944771D02*
X166401216Y-91040009D01*
X166401216Y-91040009D02*
X166401216Y-91563819D01*
X165925025Y-91468580D02*
X165877406Y-91516200D01*
X165877406Y-91516200D02*
X165925025Y-91563819D01*
X165925025Y-91563819D02*
X165972644Y-91516200D01*
X165972644Y-91516200D02*
X165925025Y-91468580D01*
X165925025Y-91468580D02*
X165925025Y-91563819D01*
X189401220Y-75319819D02*
X189401220Y-76129342D01*
X189401220Y-76129342D02*
X189353601Y-76224580D01*
X189353601Y-76224580D02*
X189305982Y-76272200D01*
X189305982Y-76272200D02*
X189210744Y-76319819D01*
X189210744Y-76319819D02*
X189020268Y-76319819D01*
X189020268Y-76319819D02*
X188925030Y-76272200D01*
X188925030Y-76272200D02*
X188877411Y-76224580D01*
X188877411Y-76224580D02*
X188829792Y-76129342D01*
X188829792Y-76129342D02*
X188829792Y-75319819D01*
X188353601Y-75653152D02*
X188353601Y-76319819D01*
X188353601Y-75748390D02*
X188305982Y-75700771D01*
X188305982Y-75700771D02*
X188210744Y-75653152D01*
X188210744Y-75653152D02*
X188067887Y-75653152D01*
X188067887Y-75653152D02*
X187972649Y-75700771D01*
X187972649Y-75700771D02*
X187925030Y-75796009D01*
X187925030Y-75796009D02*
X187925030Y-76319819D01*
X187020268Y-76319819D02*
X187020268Y-75319819D01*
X187020268Y-76272200D02*
X187115506Y-76319819D01*
X187115506Y-76319819D02*
X187305982Y-76319819D01*
X187305982Y-76319819D02*
X187401220Y-76272200D01*
X187401220Y-76272200D02*
X187448839Y-76224580D01*
X187448839Y-76224580D02*
X187496458Y-76129342D01*
X187496458Y-76129342D02*
X187496458Y-75843628D01*
X187496458Y-75843628D02*
X187448839Y-75748390D01*
X187448839Y-75748390D02*
X187401220Y-75700771D01*
X187401220Y-75700771D02*
X187305982Y-75653152D01*
X187305982Y-75653152D02*
X187115506Y-75653152D01*
X187115506Y-75653152D02*
X187020268Y-75700771D01*
X186163125Y-76272200D02*
X186258363Y-76319819D01*
X186258363Y-76319819D02*
X186448839Y-76319819D01*
X186448839Y-76319819D02*
X186544077Y-76272200D01*
X186544077Y-76272200D02*
X186591696Y-76176961D01*
X186591696Y-76176961D02*
X186591696Y-75796009D01*
X186591696Y-75796009D02*
X186544077Y-75700771D01*
X186544077Y-75700771D02*
X186448839Y-75653152D01*
X186448839Y-75653152D02*
X186258363Y-75653152D01*
X186258363Y-75653152D02*
X186163125Y-75700771D01*
X186163125Y-75700771D02*
X186115506Y-75796009D01*
X186115506Y-75796009D02*
X186115506Y-75891247D01*
X186115506Y-75891247D02*
X186591696Y-75986485D01*
X185829791Y-75653152D02*
X185448839Y-75653152D01*
X185686934Y-76319819D02*
X185686934Y-75462676D01*
X185686934Y-75462676D02*
X185639315Y-75367438D01*
X185639315Y-75367438D02*
X185544077Y-75319819D01*
X185544077Y-75319819D02*
X185448839Y-75319819D01*
X185115505Y-76319819D02*
X185115505Y-75653152D01*
X185115505Y-75319819D02*
X185163124Y-75367438D01*
X185163124Y-75367438D02*
X185115505Y-75415057D01*
X185115505Y-75415057D02*
X185067886Y-75367438D01*
X185067886Y-75367438D02*
X185115505Y-75319819D01*
X185115505Y-75319819D02*
X185115505Y-75415057D01*
X184639315Y-75653152D02*
X184639315Y-76319819D01*
X184639315Y-75748390D02*
X184591696Y-75700771D01*
X184591696Y-75700771D02*
X184496458Y-75653152D01*
X184496458Y-75653152D02*
X184353601Y-75653152D01*
X184353601Y-75653152D02*
X184258363Y-75700771D01*
X184258363Y-75700771D02*
X184210744Y-75796009D01*
X184210744Y-75796009D02*
X184210744Y-76319819D01*
X183353601Y-76272200D02*
X183448839Y-76319819D01*
X183448839Y-76319819D02*
X183639315Y-76319819D01*
X183639315Y-76319819D02*
X183734553Y-76272200D01*
X183734553Y-76272200D02*
X183782172Y-76176961D01*
X183782172Y-76176961D02*
X183782172Y-75796009D01*
X183782172Y-75796009D02*
X183734553Y-75700771D01*
X183734553Y-75700771D02*
X183639315Y-75653152D01*
X183639315Y-75653152D02*
X183448839Y-75653152D01*
X183448839Y-75653152D02*
X183353601Y-75700771D01*
X183353601Y-75700771D02*
X183305982Y-75796009D01*
X183305982Y-75796009D02*
X183305982Y-75891247D01*
X183305982Y-75891247D02*
X183782172Y-75986485D01*
X182448839Y-76319819D02*
X182448839Y-75319819D01*
X182448839Y-76272200D02*
X182544077Y-76319819D01*
X182544077Y-76319819D02*
X182734553Y-76319819D01*
X182734553Y-76319819D02*
X182829791Y-76272200D01*
X182829791Y-76272200D02*
X182877410Y-76224580D01*
X182877410Y-76224580D02*
X182925029Y-76129342D01*
X182925029Y-76129342D02*
X182925029Y-75843628D01*
X182925029Y-75843628D02*
X182877410Y-75748390D01*
X182877410Y-75748390D02*
X182829791Y-75700771D01*
X182829791Y-75700771D02*
X182734553Y-75653152D01*
X182734553Y-75653152D02*
X182544077Y-75653152D01*
X182544077Y-75653152D02*
X182448839Y-75700771D01*
X181258362Y-76272200D02*
X181115505Y-76319819D01*
X181115505Y-76319819D02*
X180877410Y-76319819D01*
X180877410Y-76319819D02*
X180782172Y-76272200D01*
X180782172Y-76272200D02*
X180734553Y-76224580D01*
X180734553Y-76224580D02*
X180686934Y-76129342D01*
X180686934Y-76129342D02*
X180686934Y-76034104D01*
X180686934Y-76034104D02*
X180734553Y-75938866D01*
X180734553Y-75938866D02*
X180782172Y-75891247D01*
X180782172Y-75891247D02*
X180877410Y-75843628D01*
X180877410Y-75843628D02*
X181067886Y-75796009D01*
X181067886Y-75796009D02*
X181163124Y-75748390D01*
X181163124Y-75748390D02*
X181210743Y-75700771D01*
X181210743Y-75700771D02*
X181258362Y-75605533D01*
X181258362Y-75605533D02*
X181258362Y-75510295D01*
X181258362Y-75510295D02*
X181210743Y-75415057D01*
X181210743Y-75415057D02*
X181163124Y-75367438D01*
X181163124Y-75367438D02*
X181067886Y-75319819D01*
X181067886Y-75319819D02*
X180829791Y-75319819D01*
X180829791Y-75319819D02*
X180686934Y-75367438D01*
X180353600Y-75653152D02*
X180115505Y-76319819D01*
X179877410Y-75653152D02*
X180115505Y-76319819D01*
X180115505Y-76319819D02*
X180210743Y-76557914D01*
X180210743Y-76557914D02*
X180258362Y-76605533D01*
X180258362Y-76605533D02*
X180353600Y-76653152D01*
X179544076Y-76272200D02*
X179448838Y-76319819D01*
X179448838Y-76319819D02*
X179258362Y-76319819D01*
X179258362Y-76319819D02*
X179163124Y-76272200D01*
X179163124Y-76272200D02*
X179115505Y-76176961D01*
X179115505Y-76176961D02*
X179115505Y-76129342D01*
X179115505Y-76129342D02*
X179163124Y-76034104D01*
X179163124Y-76034104D02*
X179258362Y-75986485D01*
X179258362Y-75986485D02*
X179401219Y-75986485D01*
X179401219Y-75986485D02*
X179496457Y-75938866D01*
X179496457Y-75938866D02*
X179544076Y-75843628D01*
X179544076Y-75843628D02*
X179544076Y-75796009D01*
X179544076Y-75796009D02*
X179496457Y-75700771D01*
X179496457Y-75700771D02*
X179401219Y-75653152D01*
X179401219Y-75653152D02*
X179258362Y-75653152D01*
X179258362Y-75653152D02*
X179163124Y-75700771D01*
X178829790Y-75653152D02*
X178448838Y-75653152D01*
X178686933Y-75319819D02*
X178686933Y-76176961D01*
X178686933Y-76176961D02*
X178639314Y-76272200D01*
X178639314Y-76272200D02*
X178544076Y-76319819D01*
X178544076Y-76319819D02*
X178448838Y-76319819D01*
X177734552Y-76272200D02*
X177829790Y-76319819D01*
X177829790Y-76319819D02*
X178020266Y-76319819D01*
X178020266Y-76319819D02*
X178115504Y-76272200D01*
X178115504Y-76272200D02*
X178163123Y-76176961D01*
X178163123Y-76176961D02*
X178163123Y-75796009D01*
X178163123Y-75796009D02*
X178115504Y-75700771D01*
X178115504Y-75700771D02*
X178020266Y-75653152D01*
X178020266Y-75653152D02*
X177829790Y-75653152D01*
X177829790Y-75653152D02*
X177734552Y-75700771D01*
X177734552Y-75700771D02*
X177686933Y-75796009D01*
X177686933Y-75796009D02*
X177686933Y-75891247D01*
X177686933Y-75891247D02*
X178163123Y-75986485D01*
X177258361Y-76319819D02*
X177258361Y-75653152D01*
X177258361Y-75748390D02*
X177210742Y-75700771D01*
X177210742Y-75700771D02*
X177115504Y-75653152D01*
X177115504Y-75653152D02*
X176972647Y-75653152D01*
X176972647Y-75653152D02*
X176877409Y-75700771D01*
X176877409Y-75700771D02*
X176829790Y-75796009D01*
X176829790Y-75796009D02*
X176829790Y-76319819D01*
X176829790Y-75796009D02*
X176782171Y-75700771D01*
X176782171Y-75700771D02*
X176686933Y-75653152D01*
X176686933Y-75653152D02*
X176544076Y-75653152D01*
X176544076Y-75653152D02*
X176448837Y-75700771D01*
X176448837Y-75700771D02*
X176401218Y-75796009D01*
X176401218Y-75796009D02*
X176401218Y-76319819D01*
X175972647Y-76272200D02*
X175877409Y-76319819D01*
X175877409Y-76319819D02*
X175686933Y-76319819D01*
X175686933Y-76319819D02*
X175591695Y-76272200D01*
X175591695Y-76272200D02*
X175544076Y-76176961D01*
X175544076Y-76176961D02*
X175544076Y-76129342D01*
X175544076Y-76129342D02*
X175591695Y-76034104D01*
X175591695Y-76034104D02*
X175686933Y-75986485D01*
X175686933Y-75986485D02*
X175829790Y-75986485D01*
X175829790Y-75986485D02*
X175925028Y-75938866D01*
X175925028Y-75938866D02*
X175972647Y-75843628D01*
X175972647Y-75843628D02*
X175972647Y-75796009D01*
X175972647Y-75796009D02*
X175925028Y-75700771D01*
X175925028Y-75700771D02*
X175829790Y-75653152D01*
X175829790Y-75653152D02*
X175686933Y-75653152D01*
X175686933Y-75653152D02*
X175591695Y-75700771D01*
X175067885Y-76272200D02*
X175067885Y-76319819D01*
X175067885Y-76319819D02*
X175115504Y-76415057D01*
X175115504Y-76415057D02*
X175163123Y-76462676D01*
X173401219Y-76319819D02*
X173877409Y-76319819D01*
X173877409Y-76319819D02*
X173877409Y-75319819D01*
X172591695Y-76319819D02*
X173067885Y-76319819D01*
X173067885Y-76319819D02*
X173067885Y-75319819D01*
X171686933Y-76224580D02*
X171734552Y-76272200D01*
X171734552Y-76272200D02*
X171877409Y-76319819D01*
X171877409Y-76319819D02*
X171972647Y-76319819D01*
X171972647Y-76319819D02*
X172115504Y-76272200D01*
X172115504Y-76272200D02*
X172210742Y-76176961D01*
X172210742Y-76176961D02*
X172258361Y-76081723D01*
X172258361Y-76081723D02*
X172305980Y-75891247D01*
X172305980Y-75891247D02*
X172305980Y-75748390D01*
X172305980Y-75748390D02*
X172258361Y-75557914D01*
X172258361Y-75557914D02*
X172210742Y-75462676D01*
X172210742Y-75462676D02*
X172115504Y-75367438D01*
X172115504Y-75367438D02*
X171972647Y-75319819D01*
X171972647Y-75319819D02*
X171877409Y-75319819D01*
X171877409Y-75319819D02*
X171734552Y-75367438D01*
X171734552Y-75367438D02*
X171686933Y-75415057D01*
X170496456Y-76319819D02*
X170496456Y-75319819D01*
X170496456Y-75319819D02*
X170258361Y-75319819D01*
X170258361Y-75319819D02*
X170115504Y-75367438D01*
X170115504Y-75367438D02*
X170020266Y-75462676D01*
X170020266Y-75462676D02*
X169972647Y-75557914D01*
X169972647Y-75557914D02*
X169925028Y-75748390D01*
X169925028Y-75748390D02*
X169925028Y-75891247D01*
X169925028Y-75891247D02*
X169972647Y-76081723D01*
X169972647Y-76081723D02*
X170020266Y-76176961D01*
X170020266Y-76176961D02*
X170115504Y-76272200D01*
X170115504Y-76272200D02*
X170258361Y-76319819D01*
X170258361Y-76319819D02*
X170496456Y-76319819D01*
X169163123Y-75796009D02*
X169020266Y-75843628D01*
X169020266Y-75843628D02*
X168972647Y-75891247D01*
X168972647Y-75891247D02*
X168925028Y-75986485D01*
X168925028Y-75986485D02*
X168925028Y-76129342D01*
X168925028Y-76129342D02*
X168972647Y-76224580D01*
X168972647Y-76224580D02*
X169020266Y-76272200D01*
X169020266Y-76272200D02*
X169115504Y-76319819D01*
X169115504Y-76319819D02*
X169496456Y-76319819D01*
X169496456Y-76319819D02*
X169496456Y-75319819D01*
X169496456Y-75319819D02*
X169163123Y-75319819D01*
X169163123Y-75319819D02*
X169067885Y-75367438D01*
X169067885Y-75367438D02*
X169020266Y-75415057D01*
X169020266Y-75415057D02*
X168972647Y-75510295D01*
X168972647Y-75510295D02*
X168972647Y-75605533D01*
X168972647Y-75605533D02*
X169020266Y-75700771D01*
X169020266Y-75700771D02*
X169067885Y-75748390D01*
X169067885Y-75748390D02*
X169163123Y-75796009D01*
X169163123Y-75796009D02*
X169496456Y-75796009D01*
X168544075Y-76034104D02*
X168067885Y-76034104D01*
X168639313Y-76319819D02*
X168305980Y-75319819D01*
X168305980Y-75319819D02*
X167972647Y-76319819D01*
X166877408Y-76319819D02*
X166877408Y-75319819D01*
X166877408Y-75319819D02*
X166496456Y-75319819D01*
X166496456Y-75319819D02*
X166401218Y-75367438D01*
X166401218Y-75367438D02*
X166353599Y-75415057D01*
X166353599Y-75415057D02*
X166305980Y-75510295D01*
X166305980Y-75510295D02*
X166305980Y-75653152D01*
X166305980Y-75653152D02*
X166353599Y-75748390D01*
X166353599Y-75748390D02*
X166401218Y-75796009D01*
X166401218Y-75796009D02*
X166496456Y-75843628D01*
X166496456Y-75843628D02*
X166877408Y-75843628D01*
X165305980Y-76224580D02*
X165353599Y-76272200D01*
X165353599Y-76272200D02*
X165496456Y-76319819D01*
X165496456Y-76319819D02*
X165591694Y-76319819D01*
X165591694Y-76319819D02*
X165734551Y-76272200D01*
X165734551Y-76272200D02*
X165829789Y-76176961D01*
X165829789Y-76176961D02*
X165877408Y-76081723D01*
X165877408Y-76081723D02*
X165925027Y-75891247D01*
X165925027Y-75891247D02*
X165925027Y-75748390D01*
X165925027Y-75748390D02*
X165877408Y-75557914D01*
X165877408Y-75557914D02*
X165829789Y-75462676D01*
X165829789Y-75462676D02*
X165734551Y-75367438D01*
X165734551Y-75367438D02*
X165591694Y-75319819D01*
X165591694Y-75319819D02*
X165496456Y-75319819D01*
X165496456Y-75319819D02*
X165353599Y-75367438D01*
X165353599Y-75367438D02*
X165305980Y-75415057D01*
X164877408Y-75938866D02*
X164115504Y-75938866D01*
X163067885Y-76319819D02*
X163401218Y-75843628D01*
X163639313Y-76319819D02*
X163639313Y-75319819D01*
X163639313Y-75319819D02*
X163258361Y-75319819D01*
X163258361Y-75319819D02*
X163163123Y-75367438D01*
X163163123Y-75367438D02*
X163115504Y-75415057D01*
X163115504Y-75415057D02*
X163067885Y-75510295D01*
X163067885Y-75510295D02*
X163067885Y-75653152D01*
X163067885Y-75653152D02*
X163115504Y-75748390D01*
X163115504Y-75748390D02*
X163163123Y-75796009D01*
X163163123Y-75796009D02*
X163258361Y-75843628D01*
X163258361Y-75843628D02*
X163639313Y-75843628D01*
X162258361Y-76272200D02*
X162353599Y-76319819D01*
X162353599Y-76319819D02*
X162544075Y-76319819D01*
X162544075Y-76319819D02*
X162639313Y-76272200D01*
X162639313Y-76272200D02*
X162686932Y-76176961D01*
X162686932Y-76176961D02*
X162686932Y-75796009D01*
X162686932Y-75796009D02*
X162639313Y-75700771D01*
X162639313Y-75700771D02*
X162544075Y-75653152D01*
X162544075Y-75653152D02*
X162353599Y-75653152D01*
X162353599Y-75653152D02*
X162258361Y-75700771D01*
X162258361Y-75700771D02*
X162210742Y-75796009D01*
X162210742Y-75796009D02*
X162210742Y-75891247D01*
X162210742Y-75891247D02*
X162686932Y-75986485D01*
X161829789Y-76272200D02*
X161734551Y-76319819D01*
X161734551Y-76319819D02*
X161544075Y-76319819D01*
X161544075Y-76319819D02*
X161448837Y-76272200D01*
X161448837Y-76272200D02*
X161401218Y-76176961D01*
X161401218Y-76176961D02*
X161401218Y-76129342D01*
X161401218Y-76129342D02*
X161448837Y-76034104D01*
X161448837Y-76034104D02*
X161544075Y-75986485D01*
X161544075Y-75986485D02*
X161686932Y-75986485D01*
X161686932Y-75986485D02*
X161782170Y-75938866D01*
X161782170Y-75938866D02*
X161829789Y-75843628D01*
X161829789Y-75843628D02*
X161829789Y-75796009D01*
X161829789Y-75796009D02*
X161782170Y-75700771D01*
X161782170Y-75700771D02*
X161686932Y-75653152D01*
X161686932Y-75653152D02*
X161544075Y-75653152D01*
X161544075Y-75653152D02*
X161448837Y-75700771D01*
X161115503Y-75653152D02*
X160734551Y-75653152D01*
X160972646Y-75319819D02*
X160972646Y-76176961D01*
X160972646Y-76176961D02*
X160925027Y-76272200D01*
X160925027Y-76272200D02*
X160829789Y-76319819D01*
X160829789Y-76319819D02*
X160734551Y-76319819D01*
X160258360Y-76319819D02*
X160353598Y-76272200D01*
X160353598Y-76272200D02*
X160401217Y-76224580D01*
X160401217Y-76224580D02*
X160448836Y-76129342D01*
X160448836Y-76129342D02*
X160448836Y-75843628D01*
X160448836Y-75843628D02*
X160401217Y-75748390D01*
X160401217Y-75748390D02*
X160353598Y-75700771D01*
X160353598Y-75700771D02*
X160258360Y-75653152D01*
X160258360Y-75653152D02*
X160115503Y-75653152D01*
X160115503Y-75653152D02*
X160020265Y-75700771D01*
X160020265Y-75700771D02*
X159972646Y-75748390D01*
X159972646Y-75748390D02*
X159925027Y-75843628D01*
X159925027Y-75843628D02*
X159925027Y-76129342D01*
X159925027Y-76129342D02*
X159972646Y-76224580D01*
X159972646Y-76224580D02*
X160020265Y-76272200D01*
X160020265Y-76272200D02*
X160115503Y-76319819D01*
X160115503Y-76319819D02*
X160258360Y-76319819D01*
X158782170Y-75272200D02*
X159639312Y-76557914D01*
X158448836Y-76319819D02*
X158448836Y-75319819D01*
X158448836Y-75319819D02*
X158067884Y-75319819D01*
X158067884Y-75319819D02*
X157972646Y-75367438D01*
X157972646Y-75367438D02*
X157925027Y-75415057D01*
X157925027Y-75415057D02*
X157877408Y-75510295D01*
X157877408Y-75510295D02*
X157877408Y-75653152D01*
X157877408Y-75653152D02*
X157925027Y-75748390D01*
X157925027Y-75748390D02*
X157972646Y-75796009D01*
X157972646Y-75796009D02*
X158067884Y-75843628D01*
X158067884Y-75843628D02*
X158448836Y-75843628D01*
X156877408Y-76224580D02*
X156925027Y-76272200D01*
X156925027Y-76272200D02*
X157067884Y-76319819D01*
X157067884Y-76319819D02*
X157163122Y-76319819D01*
X157163122Y-76319819D02*
X157305979Y-76272200D01*
X157305979Y-76272200D02*
X157401217Y-76176961D01*
X157401217Y-76176961D02*
X157448836Y-76081723D01*
X157448836Y-76081723D02*
X157496455Y-75891247D01*
X157496455Y-75891247D02*
X157496455Y-75748390D01*
X157496455Y-75748390D02*
X157448836Y-75557914D01*
X157448836Y-75557914D02*
X157401217Y-75462676D01*
X157401217Y-75462676D02*
X157305979Y-75367438D01*
X157305979Y-75367438D02*
X157163122Y-75319819D01*
X157163122Y-75319819D02*
X157067884Y-75319819D01*
X157067884Y-75319819D02*
X156925027Y-75367438D01*
X156925027Y-75367438D02*
X156877408Y-75415057D01*
X156448836Y-75938866D02*
X155686932Y-75938866D01*
X154639313Y-76319819D02*
X154972646Y-75843628D01*
X155210741Y-76319819D02*
X155210741Y-75319819D01*
X155210741Y-75319819D02*
X154829789Y-75319819D01*
X154829789Y-75319819D02*
X154734551Y-75367438D01*
X154734551Y-75367438D02*
X154686932Y-75415057D01*
X154686932Y-75415057D02*
X154639313Y-75510295D01*
X154639313Y-75510295D02*
X154639313Y-75653152D01*
X154639313Y-75653152D02*
X154686932Y-75748390D01*
X154686932Y-75748390D02*
X154734551Y-75796009D01*
X154734551Y-75796009D02*
X154829789Y-75843628D01*
X154829789Y-75843628D02*
X155210741Y-75843628D01*
X153829789Y-76272200D02*
X153925027Y-76319819D01*
X153925027Y-76319819D02*
X154115503Y-76319819D01*
X154115503Y-76319819D02*
X154210741Y-76272200D01*
X154210741Y-76272200D02*
X154258360Y-76176961D01*
X154258360Y-76176961D02*
X154258360Y-75796009D01*
X154258360Y-75796009D02*
X154210741Y-75700771D01*
X154210741Y-75700771D02*
X154115503Y-75653152D01*
X154115503Y-75653152D02*
X153925027Y-75653152D01*
X153925027Y-75653152D02*
X153829789Y-75700771D01*
X153829789Y-75700771D02*
X153782170Y-75796009D01*
X153782170Y-75796009D02*
X153782170Y-75891247D01*
X153782170Y-75891247D02*
X154258360Y-75986485D01*
X153401217Y-76272200D02*
X153305979Y-76319819D01*
X153305979Y-76319819D02*
X153115503Y-76319819D01*
X153115503Y-76319819D02*
X153020265Y-76272200D01*
X153020265Y-76272200D02*
X152972646Y-76176961D01*
X152972646Y-76176961D02*
X152972646Y-76129342D01*
X152972646Y-76129342D02*
X153020265Y-76034104D01*
X153020265Y-76034104D02*
X153115503Y-75986485D01*
X153115503Y-75986485D02*
X153258360Y-75986485D01*
X153258360Y-75986485D02*
X153353598Y-75938866D01*
X153353598Y-75938866D02*
X153401217Y-75843628D01*
X153401217Y-75843628D02*
X153401217Y-75796009D01*
X153401217Y-75796009D02*
X153353598Y-75700771D01*
X153353598Y-75700771D02*
X153258360Y-75653152D01*
X153258360Y-75653152D02*
X153115503Y-75653152D01*
X153115503Y-75653152D02*
X153020265Y-75700771D01*
X152686931Y-75653152D02*
X152305979Y-75653152D01*
X152544074Y-75319819D02*
X152544074Y-76176961D01*
X152544074Y-76176961D02*
X152496455Y-76272200D01*
X152496455Y-76272200D02*
X152401217Y-76319819D01*
X152401217Y-76319819D02*
X152305979Y-76319819D01*
X151829788Y-76319819D02*
X151925026Y-76272200D01*
X151925026Y-76272200D02*
X151972645Y-76224580D01*
X151972645Y-76224580D02*
X152020264Y-76129342D01*
X152020264Y-76129342D02*
X152020264Y-75843628D01*
X152020264Y-75843628D02*
X151972645Y-75748390D01*
X151972645Y-75748390D02*
X151925026Y-75700771D01*
X151925026Y-75700771D02*
X151829788Y-75653152D01*
X151829788Y-75653152D02*
X151686931Y-75653152D01*
X151686931Y-75653152D02*
X151591693Y-75700771D01*
X151591693Y-75700771D02*
X151544074Y-75748390D01*
X151544074Y-75748390D02*
X151496455Y-75843628D01*
X151496455Y-75843628D02*
X151496455Y-76129342D01*
X151496455Y-76129342D02*
X151544074Y-76224580D01*
X151544074Y-76224580D02*
X151591693Y-76272200D01*
X151591693Y-76272200D02*
X151686931Y-76319819D01*
X151686931Y-76319819D02*
X151829788Y-76319819D01*
X151067883Y-76319819D02*
X151067883Y-75653152D01*
X151067883Y-75843628D02*
X151020264Y-75748390D01*
X151020264Y-75748390D02*
X150972645Y-75700771D01*
X150972645Y-75700771D02*
X150877407Y-75653152D01*
X150877407Y-75653152D02*
X150782169Y-75653152D01*
X150020264Y-76319819D02*
X150020264Y-75796009D01*
X150020264Y-75796009D02*
X150067883Y-75700771D01*
X150067883Y-75700771D02*
X150163121Y-75653152D01*
X150163121Y-75653152D02*
X150353597Y-75653152D01*
X150353597Y-75653152D02*
X150448835Y-75700771D01*
X150020264Y-76272200D02*
X150115502Y-76319819D01*
X150115502Y-76319819D02*
X150353597Y-76319819D01*
X150353597Y-76319819D02*
X150448835Y-76272200D01*
X150448835Y-76272200D02*
X150496454Y-76176961D01*
X150496454Y-76176961D02*
X150496454Y-76081723D01*
X150496454Y-76081723D02*
X150448835Y-75986485D01*
X150448835Y-75986485D02*
X150353597Y-75938866D01*
X150353597Y-75938866D02*
X150115502Y-75938866D01*
X150115502Y-75938866D02*
X150020264Y-75891247D01*
X149686930Y-75653152D02*
X149305978Y-75653152D01*
X149544073Y-75319819D02*
X149544073Y-76176961D01*
X149544073Y-76176961D02*
X149496454Y-76272200D01*
X149496454Y-76272200D02*
X149401216Y-76319819D01*
X149401216Y-76319819D02*
X149305978Y-76319819D01*
X148972644Y-76319819D02*
X148972644Y-75653152D01*
X148972644Y-75319819D02*
X149020263Y-75367438D01*
X149020263Y-75367438D02*
X148972644Y-75415057D01*
X148972644Y-75415057D02*
X148925025Y-75367438D01*
X148925025Y-75367438D02*
X148972644Y-75319819D01*
X148972644Y-75319819D02*
X148972644Y-75415057D01*
X148353597Y-76319819D02*
X148448835Y-76272200D01*
X148448835Y-76272200D02*
X148496454Y-76224580D01*
X148496454Y-76224580D02*
X148544073Y-76129342D01*
X148544073Y-76129342D02*
X148544073Y-75843628D01*
X148544073Y-75843628D02*
X148496454Y-75748390D01*
X148496454Y-75748390D02*
X148448835Y-75700771D01*
X148448835Y-75700771D02*
X148353597Y-75653152D01*
X148353597Y-75653152D02*
X148210740Y-75653152D01*
X148210740Y-75653152D02*
X148115502Y-75700771D01*
X148115502Y-75700771D02*
X148067883Y-75748390D01*
X148067883Y-75748390D02*
X148020264Y-75843628D01*
X148020264Y-75843628D02*
X148020264Y-76129342D01*
X148020264Y-76129342D02*
X148067883Y-76224580D01*
X148067883Y-76224580D02*
X148115502Y-76272200D01*
X148115502Y-76272200D02*
X148210740Y-76319819D01*
X148210740Y-76319819D02*
X148353597Y-76319819D01*
X147591692Y-75653152D02*
X147591692Y-76319819D01*
X147591692Y-75748390D02*
X147544073Y-75700771D01*
X147544073Y-75700771D02*
X147448835Y-75653152D01*
X147448835Y-75653152D02*
X147305978Y-75653152D01*
X147305978Y-75653152D02*
X147210740Y-75700771D01*
X147210740Y-75700771D02*
X147163121Y-75796009D01*
X147163121Y-75796009D02*
X147163121Y-76319819D01*
X189401220Y-77263152D02*
X189401220Y-78263152D01*
X189401220Y-77310771D02*
X189305982Y-77263152D01*
X189305982Y-77263152D02*
X189115506Y-77263152D01*
X189115506Y-77263152D02*
X189020268Y-77310771D01*
X189020268Y-77310771D02*
X188972649Y-77358390D01*
X188972649Y-77358390D02*
X188925030Y-77453628D01*
X188925030Y-77453628D02*
X188925030Y-77739342D01*
X188925030Y-77739342D02*
X188972649Y-77834580D01*
X188972649Y-77834580D02*
X189020268Y-77882200D01*
X189020268Y-77882200D02*
X189115506Y-77929819D01*
X189115506Y-77929819D02*
X189305982Y-77929819D01*
X189305982Y-77929819D02*
X189401220Y-77882200D01*
X188067887Y-77882200D02*
X188163125Y-77929819D01*
X188163125Y-77929819D02*
X188353601Y-77929819D01*
X188353601Y-77929819D02*
X188448839Y-77882200D01*
X188448839Y-77882200D02*
X188496458Y-77834580D01*
X188496458Y-77834580D02*
X188544077Y-77739342D01*
X188544077Y-77739342D02*
X188544077Y-77453628D01*
X188544077Y-77453628D02*
X188496458Y-77358390D01*
X188496458Y-77358390D02*
X188448839Y-77310771D01*
X188448839Y-77310771D02*
X188353601Y-77263152D01*
X188353601Y-77263152D02*
X188163125Y-77263152D01*
X188163125Y-77263152D02*
X188067887Y-77310771D01*
X187639315Y-77548866D02*
X186877411Y-77548866D01*
X186401220Y-77929819D02*
X186401220Y-77263152D01*
X186401220Y-77453628D02*
X186353601Y-77358390D01*
X186353601Y-77358390D02*
X186305982Y-77310771D01*
X186305982Y-77310771D02*
X186210744Y-77263152D01*
X186210744Y-77263152D02*
X186115506Y-77263152D01*
X185401220Y-77882200D02*
X185496458Y-77929819D01*
X185496458Y-77929819D02*
X185686934Y-77929819D01*
X185686934Y-77929819D02*
X185782172Y-77882200D01*
X185782172Y-77882200D02*
X185829791Y-77786961D01*
X185829791Y-77786961D02*
X185829791Y-77406009D01*
X185829791Y-77406009D02*
X185782172Y-77310771D01*
X185782172Y-77310771D02*
X185686934Y-77263152D01*
X185686934Y-77263152D02*
X185496458Y-77263152D01*
X185496458Y-77263152D02*
X185401220Y-77310771D01*
X185401220Y-77310771D02*
X185353601Y-77406009D01*
X185353601Y-77406009D02*
X185353601Y-77501247D01*
X185353601Y-77501247D02*
X185829791Y-77596485D01*
X184972648Y-77882200D02*
X184877410Y-77929819D01*
X184877410Y-77929819D02*
X184686934Y-77929819D01*
X184686934Y-77929819D02*
X184591696Y-77882200D01*
X184591696Y-77882200D02*
X184544077Y-77786961D01*
X184544077Y-77786961D02*
X184544077Y-77739342D01*
X184544077Y-77739342D02*
X184591696Y-77644104D01*
X184591696Y-77644104D02*
X184686934Y-77596485D01*
X184686934Y-77596485D02*
X184829791Y-77596485D01*
X184829791Y-77596485D02*
X184925029Y-77548866D01*
X184925029Y-77548866D02*
X184972648Y-77453628D01*
X184972648Y-77453628D02*
X184972648Y-77406009D01*
X184972648Y-77406009D02*
X184925029Y-77310771D01*
X184925029Y-77310771D02*
X184829791Y-77263152D01*
X184829791Y-77263152D02*
X184686934Y-77263152D01*
X184686934Y-77263152D02*
X184591696Y-77310771D01*
X184258362Y-77263152D02*
X183877410Y-77263152D01*
X184115505Y-76929819D02*
X184115505Y-77786961D01*
X184115505Y-77786961D02*
X184067886Y-77882200D01*
X184067886Y-77882200D02*
X183972648Y-77929819D01*
X183972648Y-77929819D02*
X183877410Y-77929819D01*
X183401219Y-77929819D02*
X183496457Y-77882200D01*
X183496457Y-77882200D02*
X183544076Y-77834580D01*
X183544076Y-77834580D02*
X183591695Y-77739342D01*
X183591695Y-77739342D02*
X183591695Y-77453628D01*
X183591695Y-77453628D02*
X183544076Y-77358390D01*
X183544076Y-77358390D02*
X183496457Y-77310771D01*
X183496457Y-77310771D02*
X183401219Y-77263152D01*
X183401219Y-77263152D02*
X183258362Y-77263152D01*
X183258362Y-77263152D02*
X183163124Y-77310771D01*
X183163124Y-77310771D02*
X183115505Y-77358390D01*
X183115505Y-77358390D02*
X183067886Y-77453628D01*
X183067886Y-77453628D02*
X183067886Y-77739342D01*
X183067886Y-77739342D02*
X183115505Y-77834580D01*
X183115505Y-77834580D02*
X183163124Y-77882200D01*
X183163124Y-77882200D02*
X183258362Y-77929819D01*
X183258362Y-77929819D02*
X183401219Y-77929819D01*
X182639314Y-77834580D02*
X182591695Y-77882200D01*
X182591695Y-77882200D02*
X182639314Y-77929819D01*
X182639314Y-77929819D02*
X182686933Y-77882200D01*
X182686933Y-77882200D02*
X182639314Y-77834580D01*
X182639314Y-77834580D02*
X182639314Y-77929819D01*
X181734553Y-77882200D02*
X181829791Y-77929819D01*
X181829791Y-77929819D02*
X182020267Y-77929819D01*
X182020267Y-77929819D02*
X182115505Y-77882200D01*
X182115505Y-77882200D02*
X182163124Y-77834580D01*
X182163124Y-77834580D02*
X182210743Y-77739342D01*
X182210743Y-77739342D02*
X182210743Y-77453628D01*
X182210743Y-77453628D02*
X182163124Y-77358390D01*
X182163124Y-77358390D02*
X182115505Y-77310771D01*
X182115505Y-77310771D02*
X182020267Y-77263152D01*
X182020267Y-77263152D02*
X181829791Y-77263152D01*
X181829791Y-77263152D02*
X181734553Y-77310771D01*
X181163124Y-77929819D02*
X181258362Y-77882200D01*
X181258362Y-77882200D02*
X181305981Y-77834580D01*
X181305981Y-77834580D02*
X181353600Y-77739342D01*
X181353600Y-77739342D02*
X181353600Y-77453628D01*
X181353600Y-77453628D02*
X181305981Y-77358390D01*
X181305981Y-77358390D02*
X181258362Y-77310771D01*
X181258362Y-77310771D02*
X181163124Y-77263152D01*
X181163124Y-77263152D02*
X181020267Y-77263152D01*
X181020267Y-77263152D02*
X180925029Y-77310771D01*
X180925029Y-77310771D02*
X180877410Y-77358390D01*
X180877410Y-77358390D02*
X180829791Y-77453628D01*
X180829791Y-77453628D02*
X180829791Y-77739342D01*
X180829791Y-77739342D02*
X180877410Y-77834580D01*
X180877410Y-77834580D02*
X180925029Y-77882200D01*
X180925029Y-77882200D02*
X181020267Y-77929819D01*
X181020267Y-77929819D02*
X181163124Y-77929819D01*
X180401219Y-77929819D02*
X180401219Y-77263152D01*
X180401219Y-77358390D02*
X180353600Y-77310771D01*
X180353600Y-77310771D02*
X180258362Y-77263152D01*
X180258362Y-77263152D02*
X180115505Y-77263152D01*
X180115505Y-77263152D02*
X180020267Y-77310771D01*
X180020267Y-77310771D02*
X179972648Y-77406009D01*
X179972648Y-77406009D02*
X179972648Y-77929819D01*
X179972648Y-77406009D02*
X179925029Y-77310771D01*
X179925029Y-77310771D02*
X179829791Y-77263152D01*
X179829791Y-77263152D02*
X179686934Y-77263152D01*
X179686934Y-77263152D02*
X179591695Y-77310771D01*
X179591695Y-77310771D02*
X179544076Y-77406009D01*
X179544076Y-77406009D02*
X179544076Y-77929819D01*
X189020268Y-79492200D02*
X189115506Y-79539819D01*
X189115506Y-79539819D02*
X189305982Y-79539819D01*
X189305982Y-79539819D02*
X189401220Y-79492200D01*
X189401220Y-79492200D02*
X189448839Y-79396961D01*
X189448839Y-79396961D02*
X189448839Y-79016009D01*
X189448839Y-79016009D02*
X189401220Y-78920771D01*
X189401220Y-78920771D02*
X189305982Y-78873152D01*
X189305982Y-78873152D02*
X189115506Y-78873152D01*
X189115506Y-78873152D02*
X189020268Y-78920771D01*
X189020268Y-78920771D02*
X188972649Y-79016009D01*
X188972649Y-79016009D02*
X188972649Y-79111247D01*
X188972649Y-79111247D02*
X189448839Y-79206485D01*
X188544077Y-79539819D02*
X188544077Y-78539819D01*
X188544077Y-78920771D02*
X188448839Y-78873152D01*
X188448839Y-78873152D02*
X188258363Y-78873152D01*
X188258363Y-78873152D02*
X188163125Y-78920771D01*
X188163125Y-78920771D02*
X188115506Y-78968390D01*
X188115506Y-78968390D02*
X188067887Y-79063628D01*
X188067887Y-79063628D02*
X188067887Y-79349342D01*
X188067887Y-79349342D02*
X188115506Y-79444580D01*
X188115506Y-79444580D02*
X188163125Y-79492200D01*
X188163125Y-79492200D02*
X188258363Y-79539819D01*
X188258363Y-79539819D02*
X188448839Y-79539819D01*
X188448839Y-79539819D02*
X188544077Y-79492200D01*
X187210744Y-79539819D02*
X187210744Y-79016009D01*
X187210744Y-79016009D02*
X187258363Y-78920771D01*
X187258363Y-78920771D02*
X187353601Y-78873152D01*
X187353601Y-78873152D02*
X187544077Y-78873152D01*
X187544077Y-78873152D02*
X187639315Y-78920771D01*
X187210744Y-79492200D02*
X187305982Y-79539819D01*
X187305982Y-79539819D02*
X187544077Y-79539819D01*
X187544077Y-79539819D02*
X187639315Y-79492200D01*
X187639315Y-79492200D02*
X187686934Y-79396961D01*
X187686934Y-79396961D02*
X187686934Y-79301723D01*
X187686934Y-79301723D02*
X187639315Y-79206485D01*
X187639315Y-79206485D02*
X187544077Y-79158866D01*
X187544077Y-79158866D02*
X187305982Y-79158866D01*
X187305982Y-79158866D02*
X187210744Y-79111247D01*
X186829791Y-78873152D02*
X186591696Y-79539819D01*
X186353601Y-78873152D02*
X186591696Y-79539819D01*
X186591696Y-79539819D02*
X186686934Y-79777914D01*
X186686934Y-79777914D02*
X186734553Y-79825533D01*
X186734553Y-79825533D02*
X186829791Y-79873152D01*
X185972648Y-79444580D02*
X185925029Y-79492200D01*
X185925029Y-79492200D02*
X185972648Y-79539819D01*
X185972648Y-79539819D02*
X186020267Y-79492200D01*
X186020267Y-79492200D02*
X185972648Y-79444580D01*
X185972648Y-79444580D02*
X185972648Y-79539819D01*
X185067887Y-79492200D02*
X185163125Y-79539819D01*
X185163125Y-79539819D02*
X185353601Y-79539819D01*
X185353601Y-79539819D02*
X185448839Y-79492200D01*
X185448839Y-79492200D02*
X185496458Y-79444580D01*
X185496458Y-79444580D02*
X185544077Y-79349342D01*
X185544077Y-79349342D02*
X185544077Y-79063628D01*
X185544077Y-79063628D02*
X185496458Y-78968390D01*
X185496458Y-78968390D02*
X185448839Y-78920771D01*
X185448839Y-78920771D02*
X185353601Y-78873152D01*
X185353601Y-78873152D02*
X185163125Y-78873152D01*
X185163125Y-78873152D02*
X185067887Y-78920771D01*
X184496458Y-79539819D02*
X184591696Y-79492200D01*
X184591696Y-79492200D02*
X184639315Y-79444580D01*
X184639315Y-79444580D02*
X184686934Y-79349342D01*
X184686934Y-79349342D02*
X184686934Y-79063628D01*
X184686934Y-79063628D02*
X184639315Y-78968390D01*
X184639315Y-78968390D02*
X184591696Y-78920771D01*
X184591696Y-78920771D02*
X184496458Y-78873152D01*
X184496458Y-78873152D02*
X184353601Y-78873152D01*
X184353601Y-78873152D02*
X184258363Y-78920771D01*
X184258363Y-78920771D02*
X184210744Y-78968390D01*
X184210744Y-78968390D02*
X184163125Y-79063628D01*
X184163125Y-79063628D02*
X184163125Y-79349342D01*
X184163125Y-79349342D02*
X184210744Y-79444580D01*
X184210744Y-79444580D02*
X184258363Y-79492200D01*
X184258363Y-79492200D02*
X184353601Y-79539819D01*
X184353601Y-79539819D02*
X184496458Y-79539819D01*
X183734553Y-79539819D02*
X183734553Y-78873152D01*
X183734553Y-78968390D02*
X183686934Y-78920771D01*
X183686934Y-78920771D02*
X183591696Y-78873152D01*
X183591696Y-78873152D02*
X183448839Y-78873152D01*
X183448839Y-78873152D02*
X183353601Y-78920771D01*
X183353601Y-78920771D02*
X183305982Y-79016009D01*
X183305982Y-79016009D02*
X183305982Y-79539819D01*
X183305982Y-79016009D02*
X183258363Y-78920771D01*
X183258363Y-78920771D02*
X183163125Y-78873152D01*
X183163125Y-78873152D02*
X183020268Y-78873152D01*
X183020268Y-78873152D02*
X182925029Y-78920771D01*
X182925029Y-78920771D02*
X182877410Y-79016009D01*
X182877410Y-79016009D02*
X182877410Y-79539819D01*
X181686935Y-78492200D02*
X182544077Y-79777914D01*
X181401220Y-79492200D02*
X181305982Y-79539819D01*
X181305982Y-79539819D02*
X181115506Y-79539819D01*
X181115506Y-79539819D02*
X181020268Y-79492200D01*
X181020268Y-79492200D02*
X180972649Y-79396961D01*
X180972649Y-79396961D02*
X180972649Y-79349342D01*
X180972649Y-79349342D02*
X181020268Y-79254104D01*
X181020268Y-79254104D02*
X181115506Y-79206485D01*
X181115506Y-79206485D02*
X181258363Y-79206485D01*
X181258363Y-79206485D02*
X181353601Y-79158866D01*
X181353601Y-79158866D02*
X181401220Y-79063628D01*
X181401220Y-79063628D02*
X181401220Y-79016009D01*
X181401220Y-79016009D02*
X181353601Y-78920771D01*
X181353601Y-78920771D02*
X181258363Y-78873152D01*
X181258363Y-78873152D02*
X181115506Y-78873152D01*
X181115506Y-78873152D02*
X181020268Y-78920771D01*
X180686934Y-78873152D02*
X180305982Y-78873152D01*
X180544077Y-78539819D02*
X180544077Y-79396961D01*
X180544077Y-79396961D02*
X180496458Y-79492200D01*
X180496458Y-79492200D02*
X180401220Y-79539819D01*
X180401220Y-79539819D02*
X180305982Y-79539819D01*
X179972648Y-79539819D02*
X179972648Y-78873152D01*
X179972648Y-79063628D02*
X179925029Y-78968390D01*
X179925029Y-78968390D02*
X179877410Y-78920771D01*
X179877410Y-78920771D02*
X179782172Y-78873152D01*
X179782172Y-78873152D02*
X179686934Y-78873152D01*
X178639315Y-78492200D02*
X179496457Y-79777914D01*
X178305981Y-78873152D02*
X178305981Y-79873152D01*
X178305981Y-78920771D02*
X178210743Y-78873152D01*
X178210743Y-78873152D02*
X178020267Y-78873152D01*
X178020267Y-78873152D02*
X177925029Y-78920771D01*
X177925029Y-78920771D02*
X177877410Y-78968390D01*
X177877410Y-78968390D02*
X177829791Y-79063628D01*
X177829791Y-79063628D02*
X177829791Y-79349342D01*
X177829791Y-79349342D02*
X177877410Y-79444580D01*
X177877410Y-79444580D02*
X177925029Y-79492200D01*
X177925029Y-79492200D02*
X178020267Y-79539819D01*
X178020267Y-79539819D02*
X178210743Y-79539819D01*
X178210743Y-79539819D02*
X178305981Y-79492200D01*
X176972648Y-79492200D02*
X177067886Y-79539819D01*
X177067886Y-79539819D02*
X177258362Y-79539819D01*
X177258362Y-79539819D02*
X177353600Y-79492200D01*
X177353600Y-79492200D02*
X177401219Y-79444580D01*
X177401219Y-79444580D02*
X177448838Y-79349342D01*
X177448838Y-79349342D02*
X177448838Y-79063628D01*
X177448838Y-79063628D02*
X177401219Y-78968390D01*
X177401219Y-78968390D02*
X177353600Y-78920771D01*
X177353600Y-78920771D02*
X177258362Y-78873152D01*
X177258362Y-78873152D02*
X177067886Y-78873152D01*
X177067886Y-78873152D02*
X176972648Y-78920771D01*
X176544076Y-79539819D02*
X176544076Y-78873152D01*
X176544076Y-79063628D02*
X176496457Y-78968390D01*
X176496457Y-78968390D02*
X176448838Y-78920771D01*
X176448838Y-78920771D02*
X176353600Y-78873152D01*
X176353600Y-78873152D02*
X176258362Y-78873152D01*
X175544076Y-79492200D02*
X175639314Y-79539819D01*
X175639314Y-79539819D02*
X175829790Y-79539819D01*
X175829790Y-79539819D02*
X175925028Y-79492200D01*
X175925028Y-79492200D02*
X175972647Y-79396961D01*
X175972647Y-79396961D02*
X175972647Y-79016009D01*
X175972647Y-79016009D02*
X175925028Y-78920771D01*
X175925028Y-78920771D02*
X175829790Y-78873152D01*
X175829790Y-78873152D02*
X175639314Y-78873152D01*
X175639314Y-78873152D02*
X175544076Y-78920771D01*
X175544076Y-78920771D02*
X175496457Y-79016009D01*
X175496457Y-79016009D02*
X175496457Y-79111247D01*
X175496457Y-79111247D02*
X175972647Y-79206485D01*
X175115504Y-79492200D02*
X175020266Y-79539819D01*
X175020266Y-79539819D02*
X174829790Y-79539819D01*
X174829790Y-79539819D02*
X174734552Y-79492200D01*
X174734552Y-79492200D02*
X174686933Y-79396961D01*
X174686933Y-79396961D02*
X174686933Y-79349342D01*
X174686933Y-79349342D02*
X174734552Y-79254104D01*
X174734552Y-79254104D02*
X174829790Y-79206485D01*
X174829790Y-79206485D02*
X174972647Y-79206485D01*
X174972647Y-79206485D02*
X175067885Y-79158866D01*
X175067885Y-79158866D02*
X175115504Y-79063628D01*
X175115504Y-79063628D02*
X175115504Y-79016009D01*
X175115504Y-79016009D02*
X175067885Y-78920771D01*
X175067885Y-78920771D02*
X174972647Y-78873152D01*
X174972647Y-78873152D02*
X174829790Y-78873152D01*
X174829790Y-78873152D02*
X174734552Y-78920771D01*
X174401218Y-78873152D02*
X174020266Y-78873152D01*
X174258361Y-78539819D02*
X174258361Y-79396961D01*
X174258361Y-79396961D02*
X174210742Y-79492200D01*
X174210742Y-79492200D02*
X174115504Y-79539819D01*
X174115504Y-79539819D02*
X174020266Y-79539819D01*
X173544075Y-79539819D02*
X173639313Y-79492200D01*
X173639313Y-79492200D02*
X173686932Y-79444580D01*
X173686932Y-79444580D02*
X173734551Y-79349342D01*
X173734551Y-79349342D02*
X173734551Y-79063628D01*
X173734551Y-79063628D02*
X173686932Y-78968390D01*
X173686932Y-78968390D02*
X173639313Y-78920771D01*
X173639313Y-78920771D02*
X173544075Y-78873152D01*
X173544075Y-78873152D02*
X173401218Y-78873152D01*
X173401218Y-78873152D02*
X173305980Y-78920771D01*
X173305980Y-78920771D02*
X173258361Y-78968390D01*
X173258361Y-78968390D02*
X173210742Y-79063628D01*
X173210742Y-79063628D02*
X173210742Y-79349342D01*
X173210742Y-79349342D02*
X173258361Y-79444580D01*
X173258361Y-79444580D02*
X173305980Y-79492200D01*
X173305980Y-79492200D02*
X173401218Y-79539819D01*
X173401218Y-79539819D02*
X173544075Y-79539819D01*
X172782170Y-79539819D02*
X172782170Y-78873152D01*
X172782170Y-79063628D02*
X172734551Y-78968390D01*
X172734551Y-78968390D02*
X172686932Y-78920771D01*
X172686932Y-78920771D02*
X172591694Y-78873152D01*
X172591694Y-78873152D02*
X172496456Y-78873152D01*
X171734551Y-79539819D02*
X171734551Y-79016009D01*
X171734551Y-79016009D02*
X171782170Y-78920771D01*
X171782170Y-78920771D02*
X171877408Y-78873152D01*
X171877408Y-78873152D02*
X172067884Y-78873152D01*
X172067884Y-78873152D02*
X172163122Y-78920771D01*
X171734551Y-79492200D02*
X171829789Y-79539819D01*
X171829789Y-79539819D02*
X172067884Y-79539819D01*
X172067884Y-79539819D02*
X172163122Y-79492200D01*
X172163122Y-79492200D02*
X172210741Y-79396961D01*
X172210741Y-79396961D02*
X172210741Y-79301723D01*
X172210741Y-79301723D02*
X172163122Y-79206485D01*
X172163122Y-79206485D02*
X172067884Y-79158866D01*
X172067884Y-79158866D02*
X171829789Y-79158866D01*
X171829789Y-79158866D02*
X171734551Y-79111247D01*
X171401217Y-78873152D02*
X171020265Y-78873152D01*
X171258360Y-78539819D02*
X171258360Y-79396961D01*
X171258360Y-79396961D02*
X171210741Y-79492200D01*
X171210741Y-79492200D02*
X171115503Y-79539819D01*
X171115503Y-79539819D02*
X171020265Y-79539819D01*
X170686931Y-79539819D02*
X170686931Y-78873152D01*
X170686931Y-78539819D02*
X170734550Y-78587438D01*
X170734550Y-78587438D02*
X170686931Y-78635057D01*
X170686931Y-78635057D02*
X170639312Y-78587438D01*
X170639312Y-78587438D02*
X170686931Y-78539819D01*
X170686931Y-78539819D02*
X170686931Y-78635057D01*
X170067884Y-79539819D02*
X170163122Y-79492200D01*
X170163122Y-79492200D02*
X170210741Y-79444580D01*
X170210741Y-79444580D02*
X170258360Y-79349342D01*
X170258360Y-79349342D02*
X170258360Y-79063628D01*
X170258360Y-79063628D02*
X170210741Y-78968390D01*
X170210741Y-78968390D02*
X170163122Y-78920771D01*
X170163122Y-78920771D02*
X170067884Y-78873152D01*
X170067884Y-78873152D02*
X169925027Y-78873152D01*
X169925027Y-78873152D02*
X169829789Y-78920771D01*
X169829789Y-78920771D02*
X169782170Y-78968390D01*
X169782170Y-78968390D02*
X169734551Y-79063628D01*
X169734551Y-79063628D02*
X169734551Y-79349342D01*
X169734551Y-79349342D02*
X169782170Y-79444580D01*
X169782170Y-79444580D02*
X169829789Y-79492200D01*
X169829789Y-79492200D02*
X169925027Y-79539819D01*
X169925027Y-79539819D02*
X170067884Y-79539819D01*
X169305979Y-78873152D02*
X169305979Y-79539819D01*
X169305979Y-78968390D02*
X169258360Y-78920771D01*
X169258360Y-78920771D02*
X169163122Y-78873152D01*
X169163122Y-78873152D02*
X169020265Y-78873152D01*
X169020265Y-78873152D02*
X168925027Y-78920771D01*
X168925027Y-78920771D02*
X168877408Y-79016009D01*
X168877408Y-79016009D02*
X168877408Y-79539819D01*
X188972649Y-80483152D02*
X188972649Y-81292676D01*
X188972649Y-81292676D02*
X189020268Y-81387914D01*
X189020268Y-81387914D02*
X189067887Y-81435533D01*
X189067887Y-81435533D02*
X189163125Y-81483152D01*
X189163125Y-81483152D02*
X189305982Y-81483152D01*
X189305982Y-81483152D02*
X189401220Y-81435533D01*
X188972649Y-81102200D02*
X189067887Y-81149819D01*
X189067887Y-81149819D02*
X189258363Y-81149819D01*
X189258363Y-81149819D02*
X189353601Y-81102200D01*
X189353601Y-81102200D02*
X189401220Y-81054580D01*
X189401220Y-81054580D02*
X189448839Y-80959342D01*
X189448839Y-80959342D02*
X189448839Y-80673628D01*
X189448839Y-80673628D02*
X189401220Y-80578390D01*
X189401220Y-80578390D02*
X189353601Y-80530771D01*
X189353601Y-80530771D02*
X189258363Y-80483152D01*
X189258363Y-80483152D02*
X189067887Y-80483152D01*
X189067887Y-80483152D02*
X188972649Y-80530771D01*
X188496458Y-81149819D02*
X188496458Y-80483152D01*
X188496458Y-80149819D02*
X188544077Y-80197438D01*
X188544077Y-80197438D02*
X188496458Y-80245057D01*
X188496458Y-80245057D02*
X188448839Y-80197438D01*
X188448839Y-80197438D02*
X188496458Y-80149819D01*
X188496458Y-80149819D02*
X188496458Y-80245057D01*
X188163125Y-80483152D02*
X187782173Y-80483152D01*
X188020268Y-80149819D02*
X188020268Y-81006961D01*
X188020268Y-81006961D02*
X187972649Y-81102200D01*
X187972649Y-81102200D02*
X187877411Y-81149819D01*
X187877411Y-81149819D02*
X187782173Y-81149819D01*
X187448839Y-81149819D02*
X187448839Y-80149819D01*
X187020268Y-81149819D02*
X187020268Y-80626009D01*
X187020268Y-80626009D02*
X187067887Y-80530771D01*
X187067887Y-80530771D02*
X187163125Y-80483152D01*
X187163125Y-80483152D02*
X187305982Y-80483152D01*
X187305982Y-80483152D02*
X187401220Y-80530771D01*
X187401220Y-80530771D02*
X187448839Y-80578390D01*
X186115506Y-80483152D02*
X186115506Y-81149819D01*
X186544077Y-80483152D02*
X186544077Y-81006961D01*
X186544077Y-81006961D02*
X186496458Y-81102200D01*
X186496458Y-81102200D02*
X186401220Y-81149819D01*
X186401220Y-81149819D02*
X186258363Y-81149819D01*
X186258363Y-81149819D02*
X186163125Y-81102200D01*
X186163125Y-81102200D02*
X186115506Y-81054580D01*
X185639315Y-81149819D02*
X185639315Y-80149819D01*
X185639315Y-80530771D02*
X185544077Y-80483152D01*
X185544077Y-80483152D02*
X185353601Y-80483152D01*
X185353601Y-80483152D02*
X185258363Y-80530771D01*
X185258363Y-80530771D02*
X185210744Y-80578390D01*
X185210744Y-80578390D02*
X185163125Y-80673628D01*
X185163125Y-80673628D02*
X185163125Y-80959342D01*
X185163125Y-80959342D02*
X185210744Y-81054580D01*
X185210744Y-81054580D02*
X185258363Y-81102200D01*
X185258363Y-81102200D02*
X185353601Y-81149819D01*
X185353601Y-81149819D02*
X185544077Y-81149819D01*
X185544077Y-81149819D02*
X185639315Y-81102200D01*
X184734553Y-81054580D02*
X184686934Y-81102200D01*
X184686934Y-81102200D02*
X184734553Y-81149819D01*
X184734553Y-81149819D02*
X184782172Y-81102200D01*
X184782172Y-81102200D02*
X184734553Y-81054580D01*
X184734553Y-81054580D02*
X184734553Y-81149819D01*
X183829792Y-81102200D02*
X183925030Y-81149819D01*
X183925030Y-81149819D02*
X184115506Y-81149819D01*
X184115506Y-81149819D02*
X184210744Y-81102200D01*
X184210744Y-81102200D02*
X184258363Y-81054580D01*
X184258363Y-81054580D02*
X184305982Y-80959342D01*
X184305982Y-80959342D02*
X184305982Y-80673628D01*
X184305982Y-80673628D02*
X184258363Y-80578390D01*
X184258363Y-80578390D02*
X184210744Y-80530771D01*
X184210744Y-80530771D02*
X184115506Y-80483152D01*
X184115506Y-80483152D02*
X183925030Y-80483152D01*
X183925030Y-80483152D02*
X183829792Y-80530771D01*
X183258363Y-81149819D02*
X183353601Y-81102200D01*
X183353601Y-81102200D02*
X183401220Y-81054580D01*
X183401220Y-81054580D02*
X183448839Y-80959342D01*
X183448839Y-80959342D02*
X183448839Y-80673628D01*
X183448839Y-80673628D02*
X183401220Y-80578390D01*
X183401220Y-80578390D02*
X183353601Y-80530771D01*
X183353601Y-80530771D02*
X183258363Y-80483152D01*
X183258363Y-80483152D02*
X183115506Y-80483152D01*
X183115506Y-80483152D02*
X183020268Y-80530771D01*
X183020268Y-80530771D02*
X182972649Y-80578390D01*
X182972649Y-80578390D02*
X182925030Y-80673628D01*
X182925030Y-80673628D02*
X182925030Y-80959342D01*
X182925030Y-80959342D02*
X182972649Y-81054580D01*
X182972649Y-81054580D02*
X183020268Y-81102200D01*
X183020268Y-81102200D02*
X183115506Y-81149819D01*
X183115506Y-81149819D02*
X183258363Y-81149819D01*
X182496458Y-81149819D02*
X182496458Y-80483152D01*
X182496458Y-80578390D02*
X182448839Y-80530771D01*
X182448839Y-80530771D02*
X182353601Y-80483152D01*
X182353601Y-80483152D02*
X182210744Y-80483152D01*
X182210744Y-80483152D02*
X182115506Y-80530771D01*
X182115506Y-80530771D02*
X182067887Y-80626009D01*
X182067887Y-80626009D02*
X182067887Y-81149819D01*
X182067887Y-80626009D02*
X182020268Y-80530771D01*
X182020268Y-80530771D02*
X181925030Y-80483152D01*
X181925030Y-80483152D02*
X181782173Y-80483152D01*
X181782173Y-80483152D02*
X181686934Y-80530771D01*
X181686934Y-80530771D02*
X181639315Y-80626009D01*
X181639315Y-80626009D02*
X181639315Y-81149819D01*
X180448840Y-80102200D02*
X181305982Y-81387914D01*
X179686935Y-81102200D02*
X179782173Y-81149819D01*
X179782173Y-81149819D02*
X179972649Y-81149819D01*
X179972649Y-81149819D02*
X180067887Y-81102200D01*
X180067887Y-81102200D02*
X180115506Y-81054580D01*
X180115506Y-81054580D02*
X180163125Y-80959342D01*
X180163125Y-80959342D02*
X180163125Y-80673628D01*
X180163125Y-80673628D02*
X180115506Y-80578390D01*
X180115506Y-80578390D02*
X180067887Y-80530771D01*
X180067887Y-80530771D02*
X179972649Y-80483152D01*
X179972649Y-80483152D02*
X179782173Y-80483152D01*
X179782173Y-80483152D02*
X179686935Y-80530771D01*
X179258363Y-81149819D02*
X179258363Y-80149819D01*
X178829792Y-81149819D02*
X178829792Y-80626009D01*
X178829792Y-80626009D02*
X178877411Y-80530771D01*
X178877411Y-80530771D02*
X178972649Y-80483152D01*
X178972649Y-80483152D02*
X179115506Y-80483152D01*
X179115506Y-80483152D02*
X179210744Y-80530771D01*
X179210744Y-80530771D02*
X179258363Y-80578390D01*
X177925030Y-81149819D02*
X177925030Y-80626009D01*
X177925030Y-80626009D02*
X177972649Y-80530771D01*
X177972649Y-80530771D02*
X178067887Y-80483152D01*
X178067887Y-80483152D02*
X178258363Y-80483152D01*
X178258363Y-80483152D02*
X178353601Y-80530771D01*
X177925030Y-81102200D02*
X178020268Y-81149819D01*
X178020268Y-81149819D02*
X178258363Y-81149819D01*
X178258363Y-81149819D02*
X178353601Y-81102200D01*
X178353601Y-81102200D02*
X178401220Y-81006961D01*
X178401220Y-81006961D02*
X178401220Y-80911723D01*
X178401220Y-80911723D02*
X178353601Y-80816485D01*
X178353601Y-80816485D02*
X178258363Y-80768866D01*
X178258363Y-80768866D02*
X178020268Y-80768866D01*
X178020268Y-80768866D02*
X177925030Y-80721247D01*
X177020268Y-81149819D02*
X177020268Y-80149819D01*
X177020268Y-81102200D02*
X177115506Y-81149819D01*
X177115506Y-81149819D02*
X177305982Y-81149819D01*
X177305982Y-81149819D02*
X177401220Y-81102200D01*
X177401220Y-81102200D02*
X177448839Y-81054580D01*
X177448839Y-81054580D02*
X177496458Y-80959342D01*
X177496458Y-80959342D02*
X177496458Y-80673628D01*
X177496458Y-80673628D02*
X177448839Y-80578390D01*
X177448839Y-80578390D02*
X177401220Y-80530771D01*
X177401220Y-80530771D02*
X177305982Y-80483152D01*
X177305982Y-80483152D02*
X177115506Y-80483152D01*
X177115506Y-80483152D02*
X177020268Y-80530771D01*
X176544077Y-81149819D02*
X176544077Y-80483152D01*
X176544077Y-80673628D02*
X176496458Y-80578390D01*
X176496458Y-80578390D02*
X176448839Y-80530771D01*
X176448839Y-80530771D02*
X176353601Y-80483152D01*
X176353601Y-80483152D02*
X176258363Y-80483152D01*
X175210744Y-80102200D02*
X176067886Y-81387914D01*
X174877410Y-81149819D02*
X174877410Y-80149819D01*
X174877410Y-80626009D02*
X174305982Y-80626009D01*
X174305982Y-81149819D02*
X174305982Y-80149819D01*
X173401220Y-81149819D02*
X173401220Y-80626009D01*
X173401220Y-80626009D02*
X173448839Y-80530771D01*
X173448839Y-80530771D02*
X173544077Y-80483152D01*
X173544077Y-80483152D02*
X173734553Y-80483152D01*
X173734553Y-80483152D02*
X173829791Y-80530771D01*
X173401220Y-81102200D02*
X173496458Y-81149819D01*
X173496458Y-81149819D02*
X173734553Y-81149819D01*
X173734553Y-81149819D02*
X173829791Y-81102200D01*
X173829791Y-81102200D02*
X173877410Y-81006961D01*
X173877410Y-81006961D02*
X173877410Y-80911723D01*
X173877410Y-80911723D02*
X173829791Y-80816485D01*
X173829791Y-80816485D02*
X173734553Y-80768866D01*
X173734553Y-80768866D02*
X173496458Y-80768866D01*
X173496458Y-80768866D02*
X173401220Y-80721247D01*
X172782172Y-81149819D02*
X172877410Y-81102200D01*
X172877410Y-81102200D02*
X172925029Y-81006961D01*
X172925029Y-81006961D02*
X172925029Y-80149819D01*
X172544076Y-80483152D02*
X172163124Y-80483152D01*
X172401219Y-81149819D02*
X172401219Y-80292676D01*
X172401219Y-80292676D02*
X172353600Y-80197438D01*
X172353600Y-80197438D02*
X172258362Y-80149819D01*
X172258362Y-80149819D02*
X172163124Y-80149819D01*
X171829790Y-80768866D02*
X171067886Y-80768866D01*
X170639314Y-80864104D02*
X170163124Y-80864104D01*
X170734552Y-81149819D02*
X170401219Y-80149819D01*
X170401219Y-80149819D02*
X170067886Y-81149819D01*
X169782171Y-80864104D02*
X169305981Y-80864104D01*
X169877409Y-81149819D02*
X169544076Y-80149819D01*
X169544076Y-80149819D02*
X169210743Y-81149819D01*
X168877409Y-80768866D02*
X168115505Y-80768866D01*
X167067886Y-81149819D02*
X167401219Y-80673628D01*
X167639314Y-81149819D02*
X167639314Y-80149819D01*
X167639314Y-80149819D02*
X167258362Y-80149819D01*
X167258362Y-80149819D02*
X167163124Y-80197438D01*
X167163124Y-80197438D02*
X167115505Y-80245057D01*
X167115505Y-80245057D02*
X167067886Y-80340295D01*
X167067886Y-80340295D02*
X167067886Y-80483152D01*
X167067886Y-80483152D02*
X167115505Y-80578390D01*
X167115505Y-80578390D02*
X167163124Y-80626009D01*
X167163124Y-80626009D02*
X167258362Y-80673628D01*
X167258362Y-80673628D02*
X167639314Y-80673628D01*
X166258362Y-81102200D02*
X166353600Y-81149819D01*
X166353600Y-81149819D02*
X166544076Y-81149819D01*
X166544076Y-81149819D02*
X166639314Y-81102200D01*
X166639314Y-81102200D02*
X166686933Y-81006961D01*
X166686933Y-81006961D02*
X166686933Y-80626009D01*
X166686933Y-80626009D02*
X166639314Y-80530771D01*
X166639314Y-80530771D02*
X166544076Y-80483152D01*
X166544076Y-80483152D02*
X166353600Y-80483152D01*
X166353600Y-80483152D02*
X166258362Y-80530771D01*
X166258362Y-80530771D02*
X166210743Y-80626009D01*
X166210743Y-80626009D02*
X166210743Y-80721247D01*
X166210743Y-80721247D02*
X166686933Y-80816485D01*
X165782171Y-81149819D02*
X165782171Y-80483152D01*
X165782171Y-80578390D02*
X165734552Y-80530771D01*
X165734552Y-80530771D02*
X165639314Y-80483152D01*
X165639314Y-80483152D02*
X165496457Y-80483152D01*
X165496457Y-80483152D02*
X165401219Y-80530771D01*
X165401219Y-80530771D02*
X165353600Y-80626009D01*
X165353600Y-80626009D02*
X165353600Y-81149819D01*
X165353600Y-80626009D02*
X165305981Y-80530771D01*
X165305981Y-80530771D02*
X165210743Y-80483152D01*
X165210743Y-80483152D02*
X165067886Y-80483152D01*
X165067886Y-80483152D02*
X164972647Y-80530771D01*
X164972647Y-80530771D02*
X164925028Y-80626009D01*
X164925028Y-80626009D02*
X164925028Y-81149819D01*
X164305981Y-81149819D02*
X164401219Y-81102200D01*
X164401219Y-81102200D02*
X164448838Y-81054580D01*
X164448838Y-81054580D02*
X164496457Y-80959342D01*
X164496457Y-80959342D02*
X164496457Y-80673628D01*
X164496457Y-80673628D02*
X164448838Y-80578390D01*
X164448838Y-80578390D02*
X164401219Y-80530771D01*
X164401219Y-80530771D02*
X164305981Y-80483152D01*
X164305981Y-80483152D02*
X164163124Y-80483152D01*
X164163124Y-80483152D02*
X164067886Y-80530771D01*
X164067886Y-80530771D02*
X164020267Y-80578390D01*
X164020267Y-80578390D02*
X163972648Y-80673628D01*
X163972648Y-80673628D02*
X163972648Y-80959342D01*
X163972648Y-80959342D02*
X164020267Y-81054580D01*
X164020267Y-81054580D02*
X164067886Y-81102200D01*
X164067886Y-81102200D02*
X164163124Y-81149819D01*
X164163124Y-81149819D02*
X164305981Y-81149819D01*
X163686933Y-80483152D02*
X163305981Y-80483152D01*
X163544076Y-80149819D02*
X163544076Y-81006961D01*
X163544076Y-81006961D02*
X163496457Y-81102200D01*
X163496457Y-81102200D02*
X163401219Y-81149819D01*
X163401219Y-81149819D02*
X163305981Y-81149819D01*
X162591695Y-81102200D02*
X162686933Y-81149819D01*
X162686933Y-81149819D02*
X162877409Y-81149819D01*
X162877409Y-81149819D02*
X162972647Y-81102200D01*
X162972647Y-81102200D02*
X163020266Y-81006961D01*
X163020266Y-81006961D02*
X163020266Y-80626009D01*
X163020266Y-80626009D02*
X162972647Y-80530771D01*
X162972647Y-80530771D02*
X162877409Y-80483152D01*
X162877409Y-80483152D02*
X162686933Y-80483152D01*
X162686933Y-80483152D02*
X162591695Y-80530771D01*
X162591695Y-80530771D02*
X162544076Y-80626009D01*
X162544076Y-80626009D02*
X162544076Y-80721247D01*
X162544076Y-80721247D02*
X163020266Y-80816485D01*
X162115504Y-80768866D02*
X161353600Y-80768866D01*
X160544076Y-80626009D02*
X160401219Y-80673628D01*
X160401219Y-80673628D02*
X160353600Y-80721247D01*
X160353600Y-80721247D02*
X160305981Y-80816485D01*
X160305981Y-80816485D02*
X160305981Y-80959342D01*
X160305981Y-80959342D02*
X160353600Y-81054580D01*
X160353600Y-81054580D02*
X160401219Y-81102200D01*
X160401219Y-81102200D02*
X160496457Y-81149819D01*
X160496457Y-81149819D02*
X160877409Y-81149819D01*
X160877409Y-81149819D02*
X160877409Y-80149819D01*
X160877409Y-80149819D02*
X160544076Y-80149819D01*
X160544076Y-80149819D02*
X160448838Y-80197438D01*
X160448838Y-80197438D02*
X160401219Y-80245057D01*
X160401219Y-80245057D02*
X160353600Y-80340295D01*
X160353600Y-80340295D02*
X160353600Y-80435533D01*
X160353600Y-80435533D02*
X160401219Y-80530771D01*
X160401219Y-80530771D02*
X160448838Y-80578390D01*
X160448838Y-80578390D02*
X160544076Y-80626009D01*
X160544076Y-80626009D02*
X160877409Y-80626009D01*
X159448838Y-81149819D02*
X159448838Y-80626009D01*
X159448838Y-80626009D02*
X159496457Y-80530771D01*
X159496457Y-80530771D02*
X159591695Y-80483152D01*
X159591695Y-80483152D02*
X159782171Y-80483152D01*
X159782171Y-80483152D02*
X159877409Y-80530771D01*
X159448838Y-81102200D02*
X159544076Y-81149819D01*
X159544076Y-81149819D02*
X159782171Y-81149819D01*
X159782171Y-81149819D02*
X159877409Y-81102200D01*
X159877409Y-81102200D02*
X159925028Y-81006961D01*
X159925028Y-81006961D02*
X159925028Y-80911723D01*
X159925028Y-80911723D02*
X159877409Y-80816485D01*
X159877409Y-80816485D02*
X159782171Y-80768866D01*
X159782171Y-80768866D02*
X159544076Y-80768866D01*
X159544076Y-80768866D02*
X159448838Y-80721247D01*
X159115504Y-80483152D02*
X158734552Y-80483152D01*
X158972647Y-80149819D02*
X158972647Y-81006961D01*
X158972647Y-81006961D02*
X158925028Y-81102200D01*
X158925028Y-81102200D02*
X158829790Y-81149819D01*
X158829790Y-81149819D02*
X158734552Y-81149819D01*
X158544075Y-80483152D02*
X158163123Y-80483152D01*
X158401218Y-80149819D02*
X158401218Y-81006961D01*
X158401218Y-81006961D02*
X158353599Y-81102200D01*
X158353599Y-81102200D02*
X158258361Y-81149819D01*
X158258361Y-81149819D02*
X158163123Y-81149819D01*
X157448837Y-81102200D02*
X157544075Y-81149819D01*
X157544075Y-81149819D02*
X157734551Y-81149819D01*
X157734551Y-81149819D02*
X157829789Y-81102200D01*
X157829789Y-81102200D02*
X157877408Y-81006961D01*
X157877408Y-81006961D02*
X157877408Y-80626009D01*
X157877408Y-80626009D02*
X157829789Y-80530771D01*
X157829789Y-80530771D02*
X157734551Y-80483152D01*
X157734551Y-80483152D02*
X157544075Y-80483152D01*
X157544075Y-80483152D02*
X157448837Y-80530771D01*
X157448837Y-80530771D02*
X157401218Y-80626009D01*
X157401218Y-80626009D02*
X157401218Y-80721247D01*
X157401218Y-80721247D02*
X157877408Y-80816485D01*
X156972646Y-81149819D02*
X156972646Y-80483152D01*
X156972646Y-80673628D02*
X156925027Y-80578390D01*
X156925027Y-80578390D02*
X156877408Y-80530771D01*
X156877408Y-80530771D02*
X156782170Y-80483152D01*
X156782170Y-80483152D02*
X156686932Y-80483152D01*
X156448836Y-80483152D02*
X156210741Y-81149819D01*
X155972646Y-80483152D02*
X156210741Y-81149819D01*
X156210741Y-81149819D02*
X156305979Y-81387914D01*
X156305979Y-81387914D02*
X156353598Y-81435533D01*
X156353598Y-81435533D02*
X156448836Y-81483152D01*
X155591693Y-80768866D02*
X154829789Y-80768866D01*
X154020265Y-80626009D02*
X153877408Y-80673628D01*
X153877408Y-80673628D02*
X153829789Y-80721247D01*
X153829789Y-80721247D02*
X153782170Y-80816485D01*
X153782170Y-80816485D02*
X153782170Y-80959342D01*
X153782170Y-80959342D02*
X153829789Y-81054580D01*
X153829789Y-81054580D02*
X153877408Y-81102200D01*
X153877408Y-81102200D02*
X153972646Y-81149819D01*
X153972646Y-81149819D02*
X154353598Y-81149819D01*
X154353598Y-81149819D02*
X154353598Y-80149819D01*
X154353598Y-80149819D02*
X154020265Y-80149819D01*
X154020265Y-80149819D02*
X153925027Y-80197438D01*
X153925027Y-80197438D02*
X153877408Y-80245057D01*
X153877408Y-80245057D02*
X153829789Y-80340295D01*
X153829789Y-80340295D02*
X153829789Y-80435533D01*
X153829789Y-80435533D02*
X153877408Y-80530771D01*
X153877408Y-80530771D02*
X153925027Y-80578390D01*
X153925027Y-80578390D02*
X154020265Y-80626009D01*
X154020265Y-80626009D02*
X154353598Y-80626009D01*
X153210741Y-81149819D02*
X153305979Y-81102200D01*
X153305979Y-81102200D02*
X153353598Y-81054580D01*
X153353598Y-81054580D02*
X153401217Y-80959342D01*
X153401217Y-80959342D02*
X153401217Y-80673628D01*
X153401217Y-80673628D02*
X153353598Y-80578390D01*
X153353598Y-80578390D02*
X153305979Y-80530771D01*
X153305979Y-80530771D02*
X153210741Y-80483152D01*
X153210741Y-80483152D02*
X153067884Y-80483152D01*
X153067884Y-80483152D02*
X152972646Y-80530771D01*
X152972646Y-80530771D02*
X152925027Y-80578390D01*
X152925027Y-80578390D02*
X152877408Y-80673628D01*
X152877408Y-80673628D02*
X152877408Y-80959342D01*
X152877408Y-80959342D02*
X152925027Y-81054580D01*
X152925027Y-81054580D02*
X152972646Y-81102200D01*
X152972646Y-81102200D02*
X153067884Y-81149819D01*
X153067884Y-81149819D02*
X153210741Y-81149819D01*
X152020265Y-81149819D02*
X152020265Y-80626009D01*
X152020265Y-80626009D02*
X152067884Y-80530771D01*
X152067884Y-80530771D02*
X152163122Y-80483152D01*
X152163122Y-80483152D02*
X152353598Y-80483152D01*
X152353598Y-80483152D02*
X152448836Y-80530771D01*
X152020265Y-81102200D02*
X152115503Y-81149819D01*
X152115503Y-81149819D02*
X152353598Y-81149819D01*
X152353598Y-81149819D02*
X152448836Y-81102200D01*
X152448836Y-81102200D02*
X152496455Y-81006961D01*
X152496455Y-81006961D02*
X152496455Y-80911723D01*
X152496455Y-80911723D02*
X152448836Y-80816485D01*
X152448836Y-80816485D02*
X152353598Y-80768866D01*
X152353598Y-80768866D02*
X152115503Y-80768866D01*
X152115503Y-80768866D02*
X152020265Y-80721247D01*
X151544074Y-81149819D02*
X151544074Y-80483152D01*
X151544074Y-80673628D02*
X151496455Y-80578390D01*
X151496455Y-80578390D02*
X151448836Y-80530771D01*
X151448836Y-80530771D02*
X151353598Y-80483152D01*
X151353598Y-80483152D02*
X151258360Y-80483152D01*
X150496455Y-81149819D02*
X150496455Y-80149819D01*
X150496455Y-81102200D02*
X150591693Y-81149819D01*
X150591693Y-81149819D02*
X150782169Y-81149819D01*
X150782169Y-81149819D02*
X150877407Y-81102200D01*
X150877407Y-81102200D02*
X150925026Y-81054580D01*
X150925026Y-81054580D02*
X150972645Y-80959342D01*
X150972645Y-80959342D02*
X150972645Y-80673628D01*
X150972645Y-80673628D02*
X150925026Y-80578390D01*
X150925026Y-80578390D02*
X150877407Y-80530771D01*
X150877407Y-80530771D02*
X150782169Y-80483152D01*
X150782169Y-80483152D02*
X150591693Y-80483152D01*
X150591693Y-80483152D02*
X150496455Y-80530771D01*
D11*
X166016183Y-98095219D02*
X165444755Y-98095219D01*
X165730469Y-99095219D02*
X165730469Y-98095219D01*
X164730469Y-99047600D02*
X164825707Y-99095219D01*
X164825707Y-99095219D02*
X165016183Y-99095219D01*
X165016183Y-99095219D02*
X165111421Y-99047600D01*
X165111421Y-99047600D02*
X165159040Y-98952361D01*
X165159040Y-98952361D02*
X165159040Y-98571409D01*
X165159040Y-98571409D02*
X165111421Y-98476171D01*
X165111421Y-98476171D02*
X165016183Y-98428552D01*
X165016183Y-98428552D02*
X164825707Y-98428552D01*
X164825707Y-98428552D02*
X164730469Y-98476171D01*
X164730469Y-98476171D02*
X164682850Y-98571409D01*
X164682850Y-98571409D02*
X164682850Y-98666647D01*
X164682850Y-98666647D02*
X165159040Y-98761885D01*
X164301897Y-99047600D02*
X164206659Y-99095219D01*
X164206659Y-99095219D02*
X164016183Y-99095219D01*
X164016183Y-99095219D02*
X163920945Y-99047600D01*
X163920945Y-99047600D02*
X163873326Y-98952361D01*
X163873326Y-98952361D02*
X163873326Y-98904742D01*
X163873326Y-98904742D02*
X163920945Y-98809504D01*
X163920945Y-98809504D02*
X164016183Y-98761885D01*
X164016183Y-98761885D02*
X164159040Y-98761885D01*
X164159040Y-98761885D02*
X164254278Y-98714266D01*
X164254278Y-98714266D02*
X164301897Y-98619028D01*
X164301897Y-98619028D02*
X164301897Y-98571409D01*
X164301897Y-98571409D02*
X164254278Y-98476171D01*
X164254278Y-98476171D02*
X164159040Y-98428552D01*
X164159040Y-98428552D02*
X164016183Y-98428552D01*
X164016183Y-98428552D02*
X163920945Y-98476171D01*
X163587611Y-98428552D02*
X163206659Y-98428552D01*
X163444754Y-98095219D02*
X163444754Y-98952361D01*
X163444754Y-98952361D02*
X163397135Y-99047600D01*
X163397135Y-99047600D02*
X163301897Y-99095219D01*
X163301897Y-99095219D02*
X163206659Y-99095219D01*
X162492373Y-99047600D02*
X162587611Y-99095219D01*
X162587611Y-99095219D02*
X162778087Y-99095219D01*
X162778087Y-99095219D02*
X162873325Y-99047600D01*
X162873325Y-99047600D02*
X162920944Y-98952361D01*
X162920944Y-98952361D02*
X162920944Y-98571409D01*
X162920944Y-98571409D02*
X162873325Y-98476171D01*
X162873325Y-98476171D02*
X162778087Y-98428552D01*
X162778087Y-98428552D02*
X162587611Y-98428552D01*
X162587611Y-98428552D02*
X162492373Y-98476171D01*
X162492373Y-98476171D02*
X162444754Y-98571409D01*
X162444754Y-98571409D02*
X162444754Y-98666647D01*
X162444754Y-98666647D02*
X162920944Y-98761885D01*
X161587611Y-99095219D02*
X161587611Y-98095219D01*
X161587611Y-99047600D02*
X161682849Y-99095219D01*
X161682849Y-99095219D02*
X161873325Y-99095219D01*
X161873325Y-99095219D02*
X161968563Y-99047600D01*
X161968563Y-99047600D02*
X162016182Y-98999980D01*
X162016182Y-98999980D02*
X162063801Y-98904742D01*
X162063801Y-98904742D02*
X162063801Y-98619028D01*
X162063801Y-98619028D02*
X162016182Y-98523790D01*
X162016182Y-98523790D02*
X161968563Y-98476171D01*
X161968563Y-98476171D02*
X161873325Y-98428552D01*
X161873325Y-98428552D02*
X161682849Y-98428552D01*
X161682849Y-98428552D02*
X161587611Y-98476171D01*
X165682850Y-99705219D02*
X165492374Y-99705219D01*
X165492374Y-99705219D02*
X165397136Y-99752838D01*
X165397136Y-99752838D02*
X165301898Y-99848076D01*
X165301898Y-99848076D02*
X165254279Y-100038552D01*
X165254279Y-100038552D02*
X165254279Y-100371885D01*
X165254279Y-100371885D02*
X165301898Y-100562361D01*
X165301898Y-100562361D02*
X165397136Y-100657600D01*
X165397136Y-100657600D02*
X165492374Y-100705219D01*
X165492374Y-100705219D02*
X165682850Y-100705219D01*
X165682850Y-100705219D02*
X165778088Y-100657600D01*
X165778088Y-100657600D02*
X165873326Y-100562361D01*
X165873326Y-100562361D02*
X165920945Y-100371885D01*
X165920945Y-100371885D02*
X165920945Y-100038552D01*
X165920945Y-100038552D02*
X165873326Y-99848076D01*
X165873326Y-99848076D02*
X165778088Y-99752838D01*
X165778088Y-99752838D02*
X165682850Y-99705219D01*
X164825707Y-100705219D02*
X164825707Y-99705219D01*
X164254279Y-100705219D02*
X164682850Y-100133790D01*
X164254279Y-99705219D02*
X164825707Y-100276647D01*
M02*
